<?xml version="1.0" encoding="iso-8859-1"?>
<!-- Generator: Adobe Illustrator 19.0.0, SVG Export Plug-In . SVG Version: 6.00 Build 0)  -->
<svg version="1.1" id="Layer_1" xmlns="http://www.w3.org/2000/svg" xmlns:xlink="http://www.w3.org/1999/xlink" x="0px" y="0px"
	 viewBox="0 0 512 512" style="enable-background:new 0 0 512 512;" xml:space="preserve">
<circle style="fill:#43D3E8;" cx="256" cy="256" r="256"/>
<path style="fill:#FFFFFF;" d="M245.322,357.737l-13.629-55.629c14.239-7.409,27.791-17.121,39.946-29.279l35.717-35.717
	l32.924,32.929l72.287,134.249l8.64-17.459c2.186-4.37,3.638-9.195,4.206-14.313c0.571-5.133,0.182-10.14-0.955-14.912
	l-46.74-190.845l-0.087,0.084l60.301-60.306c13.325-13.317,18.14-31.444,13.857-46.328c-14.886-4.283-33.016,0.54-46.321,13.85
	l-60.367,60.367l0.133-0.141L154.386,87.534c-4.759-1.134-9.774-1.539-14.899-0.955c-5.133,0.568-9.958,2.022-14.326,4.214
	l-17.449,8.643l134.257,72.294l32.922,32.916l-35.712,35.712c-12.165,12.163-21.875,25.708-29.284,39.946l-55.631-13.635
	c-5.097-1.236-10.583-1.231-16.026,0.284c-5.417,1.508-10.125,4.37-13.837,8.082l-10.396,10.401l73.167,39.393l39.388,73.165
	l10.404-10.401c3.712-3.715,6.582-8.407,8.082-13.832C246.551,368.32,246.561,362.836,245.322,357.737z"/>
<g>
	<path style="fill:#242D3C;" d="M223.959,415.675l-44.667-82.97l-82.97-44.672l20.529-20.536c5.133-5.133,11.538-8.87,18.522-10.816
		c6.994-1.951,14.395-2.071,21.404-0.374l68.851,16.87l-6.272,12.05c-2.353,4.526-4.454,9.101-6.292,13.706
		c4.603-1.833,9.183-3.932,13.709-6.287l12.05-6.269l16.858,68.826c1.708,7.007,1.585,14.408-0.358,21.412
		c-1.925,6.958-5.668,13.368-10.819,18.519L223.959,415.675z M199.68,325.568l29.471,54.751l0.266-0.266
		c2.55-2.55,4.401-5.706,5.345-9.129c0.983-3.564,1.05-7.145,0.197-10.657l-10.522-42.941
		C216.266,320.794,207.985,323.556,199.68,325.568z M131.679,282.842l54.746,29.476c2.022-8.31,4.785-16.596,8.253-24.76
		l-42.957-10.527c-3.433-0.835-7.124-0.776-10.624,0.2c-3.456,0.963-6.618,2.813-9.16,5.35L131.679,282.842z"/>
	<path style="fill:#242D3C;" d="M274.888,219.73l-39.355-39.352L84.475,99.039l35.95-17.805c5.542-2.783,11.579-4.559,17.887-5.258
		c5.99-0.678,12.367-0.287,18.542,1.183l209.316,51.274L274.888,219.73z M130.959,99.837l117.44,63.242l26.488,26.483l49.408-49.421
		l-172.449-42.25c-3.671-0.87-7.401-1.137-11.154-0.712C137.254,97.559,133.996,98.45,130.959,99.837z"/>
	<path style="fill:#242D3C;" d="M412.966,427.53L331.63,276.475l-39.355-39.355l91.295-91.297l51.251,209.244
		c1.485,6.223,1.879,12.467,1.193,18.629c-0.694,6.292-2.468,12.319-5.268,17.907L412.966,427.53z M322.442,237.12l26.488,26.483
		l63.227,117.427c1.393-3.057,2.281-6.303,2.655-9.687c0.412-3.715,0.166-7.503-0.73-11.261l-42.219-172.383L322.442,237.12z"/>
	<path style="fill:#242D3C;" d="M182.262,329.72l4.037-16.883c7.135-29.837,22.812-57.508,45.332-80.026L397.924,66.519
		c11.745-11.756,27.361-18.496,42.836-18.496c4.808,0,9.513,0.653,13.975,1.938l5.67,1.628l1.631,5.67
		c5.55,19.287-0.796,41.062-16.568,56.824l-166.29,166.282c-22.531,22.536-50.204,38.211-80.031,45.322L182.262,329.72z
		 M440.763,69.358c-9.859,0-19.976,4.462-27.755,12.244L246.717,247.9c-14.894,14.892-26.365,32.317-33.766,51.146
		c18.821-7.391,36.247-18.857,51.146-33.759L430.39,99c8.369-8.366,12.808-19.425,12.209-29.588
		C441.987,69.379,441.375,69.358,440.763,69.358z"/>
	
		<rect x="167.471" y="308.438" transform="matrix(-0.7071 -0.7071 0.7071 -0.7071 68 695.9546)" style="fill:#242D3C;" width="21.332" height="50.913"/>
	
		<rect x="114.861" y="404.852" transform="matrix(-0.7071 -0.7071 0.7071 -0.7071 -105.9279 861.8243)" style="fill:#242D3C;" width="21.33" height="95.996"/>
	
		<rect x="48.463" y="338.468" transform="matrix(-0.707 -0.7072 0.7072 -0.707 -172.3779 701.5195)" style="fill:#242D3C;" width="21.332" height="95.999"/>
	
		<rect x="302.237" y="381.108" transform="matrix(-0.707 -0.7072 0.7072 -0.707 230.6607 953.7748)" style="fill:#242D3C;" width="21.332" height="95.996"/>
	
		<rect x="72.243" y="151.068" transform="matrix(-0.7071 -0.7071 0.7071 -0.7071 0.7732 398.4544)" style="fill:#242D3C;" width="21.332" height="95.999"/>
</g>
<g>
</g>
<g>
</g>
<g>
</g>
<g>
</g>
<g>
</g>
<g>
</g>
<g>
</g>
<g>
</g>
<g>
</g>
<g>
</g>
<g>
</g>
<g>
</g>
<g>
</g>
<g>
</g>
<g>
</g>
</svg>
