<?xml version="1.0" encoding="iso-8859-1"?>
<!-- Generator: Adobe Illustrator 19.0.0, SVG Export Plug-In . SVG Version: 6.00 Build 0)  -->
<svg version="1.1" id="Layer_1" xmlns="http://www.w3.org/2000/svg" xmlns:xlink="http://www.w3.org/1999/xlink" x="0px" y="0px"
	 viewBox="0 0 512 512" style="enable-background:new 0 0 512 512;" xml:space="preserve">
<circle style="fill:#005C83;" cx="256" cy="256" r="256"/>
<path style="fill:#00263F;" d="M512,256c0-12.802-0.952-25.379-2.767-37.674l-68.344-68.346l-30.039,3.362l-15.429-15.429
	l-16.317,18.98l-203.531,22.773l-41.755-41.753l-24.126,49.124l-38.581,4.317l54.534,54.534l-54.534,6.234l37.064,37.064
	l-71.111,23.704l60.313,60.313l-22.387,20.28l107.91,107.91C206.065,508.281,230.597,512,256,512C397.384,512,512,397.384,512,256z"
	/>
<rect x="74.99" y="308.148" style="fill:#FF9451;" width="34.478" height="85.333"/>
<rect x="402.532" y="308.148" style="fill:#F7674F;" width="34.478" height="85.333"/>
<rect x="116.571" y="137.912" style="fill:#FF9451;" width="17.239" height="160.323"/>
<rect x="378.173" y="137.912" style="fill:#F7674F;" width="17.239" height="160.323"/>
<rect x="71.111" y="149.98" style="fill:#FF6838;" width="369.778" height="41.374"/>
<rect x="255.431" y="149.98" style="fill:#AE4E32;" width="185.458" height="41.374"/>
<rect x="71.111" y="210.747" style="fill:#FF6838;" width="369.778" height="41.374"/>
<rect x="255.431" y="210.747" style="fill:#AE4E32;" width="185.458" height="41.374"/>
<rect x="37.064" y="271.515" style="fill:#FF6838;" width="437.872" height="41.374"/>
<rect x="255.431" y="271.515" style="fill:#AE4E32;" width="219.505" height="41.374"/>
<g>
</g>
<g>
</g>
<g>
</g>
<g>
</g>
<g>
</g>
<g>
</g>
<g>
</g>
<g>
</g>
<g>
</g>
<g>
</g>
<g>
</g>
<g>
</g>
<g>
</g>
<g>
</g>
<g>
</g>
</svg>
