<?xml version="1.0" encoding="iso-8859-1"?>
<!-- Generator: Adobe Illustrator 19.0.0, SVG Export Plug-In . SVG Version: 6.00 Build 0)  -->
<svg version="1.1" id="Capa_1" xmlns="http://www.w3.org/2000/svg" xmlns:xlink="http://www.w3.org/1999/xlink" x="0px" y="0px"
	 viewBox="0 0 512 512" style="enable-background:new 0 0 512 512;" xml:space="preserve">
<path style="fill:#004DB1;" d="M512,256c0,68.38-26.63,132.67-74.98,181.02S324.38,512,256,512s-132.67-26.63-181.02-74.98
	S0,324.38,0,256S26.63,123.33,74.98,74.98S187.62,0,256,0s132.67,26.63,181.02,74.98S512,187.62,512,256z"/>
<path style="fill:#003D8D;" d="M512,256c0,68.38-26.63,132.67-74.98,181.02S324.38,512,256,512V0c68.38,0,132.67,26.63,181.02,74.98
	S512,187.62,512,256z"/>
<path style="fill:#FFFFFF;" d="M459.53,220.5c0-19.31-15.72-35.03-35.03-35.03H87.53c-19.32,0-35.03,15.72-35.03,35.03v95.47h32.27
	c-0.83,2.35-1.29,4.88-1.29,7.51C83.48,335.92,93.56,346,106,346s22.52-10.08,22.52-22.52c0-2.63-0.46-5.16-1.29-7.51h257.09
	c-0.83,2.35-1.29,4.88-1.29,7.51c0,12.44,10.08,22.52,22.52,22.52c12.43,0,22.51-10.08,22.51-22.52c0-2.63-0.45-5.16-1.29-7.51
	h32.76V220.5z M335.03,215.47h33v20.25h-33V215.47z M272.04,215.47h32.99v20.25h-32.99V215.47z M209.04,215.47h33v20.25h-33V215.47z
	 M146.04,215.47h33v20.25h-33V215.47z M82.5,220.5c0-2.77,2.25-5.03,5.03-5.03h28.51v20.25H82.5V220.5z M429.53,285.97H82.5v-20.25
	h347.03V285.97z M429.53,235.72h-31.5v-20.25h26.47c2.77,0,5.03,2.26,5.03,5.03V235.72z"/>
<path style="fill:#D9D8DB;" d="M459.53,220.5c0-19.31-15.72-35.03-35.03-35.03H256v80.25h173.53v20.25H256v30h128.32
	c-0.83,2.35-1.29,4.88-1.29,7.51c0,12.44,10.08,22.52,22.52,22.52c12.43,0,22.51-10.08,22.51-22.52c0-2.63-0.45-5.16-1.29-7.51
	h32.76V220.5z M305.03,235.72h-32.99v-20.25h32.99V235.72z M368.03,235.72h-33v-20.25h33V235.72z M429.53,235.72h-31.5v-20.25h26.47
	c2.77,0,5.03,2.26,5.03,5.03V235.72z"/>
<g>
</g>
<g>
</g>
<g>
</g>
<g>
</g>
<g>
</g>
<g>
</g>
<g>
</g>
<g>
</g>
<g>
</g>
<g>
</g>
<g>
</g>
<g>
</g>
<g>
</g>
<g>
</g>
<g>
</g>
</svg>
