<?xml version="1.0" encoding="iso-8859-1"?>
<!-- Generator: Adobe Illustrator 19.0.0, SVG Export Plug-In . SVG Version: 6.00 Build 0)  -->
<svg version="1.1" id="Layer_1" xmlns="http://www.w3.org/2000/svg" xmlns:xlink="http://www.w3.org/1999/xlink" x="0px" y="0px"
	 viewBox="0 0 512 512" style="enable-background:new 0 0 512 512;" xml:space="preserve">
<circle style="fill:#FF5722;" cx="256" cy="256" r="256"/>
<path style="fill:#FFFFFF;" d="M404.945,386.327c0,10.287-8.336,18.618-18.618,18.618H125.673c-10.282,0-18.618-8.332-18.618-18.618
	V200.145c0-10.282,8.336-18.618,18.618-18.618h260.655c10.282,0,18.618,8.336,18.618,18.618V386.327z"/>
<path style="fill:#2C0900;" d="M311.855,144.291c0-10.282-8.336-18.618-18.618-18.618h-74.473c-10.282,0-18.618,8.336-18.618,18.618
	v37.236h18.618v-18.618c0-10.282,8.336-18.618,18.618-18.618h37.236c10.282,0,18.618,8.336,18.618,18.618v18.618h18.618V144.291z"/>
<polygon style="fill:#FF2F00;" points="321.164,271.514 277.718,271.514 277.718,228.073 234.282,228.073 234.282,271.514 
	190.836,271.514 190.836,314.959 234.282,314.959 234.282,358.4 277.718,358.4 277.718,314.959 321.164,314.959 "/>
<g>
	<rect x="186.182" y="167.564" style="fill:#FFE4DE;" width="46.545" height="13.964"/>
	<rect x="279.273" y="167.564" style="fill:#FFE4DE;" width="46.545" height="13.964"/>
</g>
<g>
</g>
<g>
</g>
<g>
</g>
<g>
</g>
<g>
</g>
<g>
</g>
<g>
</g>
<g>
</g>
<g>
</g>
<g>
</g>
<g>
</g>
<g>
</g>
<g>
</g>
<g>
</g>
<g>
</g>
</svg>
