<?xml version="1.0"?>
<svg xmlns="http://www.w3.org/2000/svg" xmlns:xlink="http://www.w3.org/1999/xlink" version="1.1" id="Capa_1" x="0px" y="0px" viewBox="0 0 512.007 512.007" style="enable-background:new 0 0 512.007 512.007;" xml:space="preserve" width="512px" height="512px" class=""><g><script xmlns=""/><circle style="fill:#DF871E;" cx="256.003" cy="256.003" r="256.003" data-original="#DF871E" class=""/><path style="fill:#C27526;" d="M429.711,183.178h-12.419l-65.385-65.385c-5.672-5.672-13.507-9.18-22.162-9.18  c-17.309,0-31.341,14.032-31.341,31.341c0,8.655,3.508,16.49,9.18,22.162l21.061,21.061h-58.842l-65.385-65.385  c-5.672-5.672-13.508-9.18-22.162-9.18c-17.31,0-31.342,14.032-31.342,31.342c0,8.655,3.508,16.49,9.181,22.162l21.06,21.06H82.289  c-7.693,0-13.929,6.237-13.929,13.93c0,3.461,1.271,6.622,3.361,9.058l-0.004,0.004l0.095,0.095c0.411,0.47,0.853,0.911,1.322,1.322  l69.259,69.259c-1.056,6.276-2.286,12.526-3.705,18.738l-19.848,86.899c-1.444,6.324,0.822,12.63,5.368,16.638l-0.025,0.025  L236.29,511.252c6.505,0.495,13.078,0.747,19.71,0.747c140.164,0,253.998-112.65,255.954-252.349l-74.033-74.033l-0.145,0.145  C435.499,184.142,432.72,183.178,429.711,183.178z" data-original="#C27526" class=""/><g>
	<path style="fill:#FFFFFF" d="M443.64,197.108c0-7.693-6.236-13.93-13.929-13.93H82.288c-7.693,0-13.929,6.237-13.929,13.93   c0,7.693,6.237,13.929,13.929,13.929h53.631c6.105,0,11.054,4.949,11.054,11.054c0,24.731-2.779,49.383-8.286,73.493   l-19.848,86.899c-2.102,9.203,3.655,18.368,12.858,20.47c9.203,2.102,18.368-3.655,20.47-12.858l22.752-99.614   c0.782-3.422,3.825-5.849,7.336-5.849c3.511,0,6.554,2.427,7.336,5.849l22.752,99.614c2.102,9.203,11.267,14.961,20.47,12.858   c9.203-2.102,14.96-11.267,12.858-20.47l-21.957-96.132c-4.815-21.081-7.245-42.636-7.245-64.261   c0-6.105,4.949-11.054,11.054-11.054h56.297c6.105,0,11.054,4.949,11.054,11.054c0,23.539-2.645,47.003-7.887,69.95l-20.656,90.443   c-2.102,9.203,3.655,18.368,12.858,20.47c9.203,2.102,18.368-3.655,20.47-12.858l22.752-99.614   c0.782-3.422,3.825-5.849,7.336-5.849c3.511,0,6.554,2.427,7.336,5.849l22.752,99.614c2.102,9.203,11.267,14.961,20.47,12.858   c9.203-2.102,14.96-11.267,12.858-20.47l-21.148-92.591c-5.08-22.242-7.645-44.986-7.645-67.802   c0-6.105,4.949-11.054,11.054-11.054h54.288C437.404,211.037,443.64,204.801,443.64,197.108z" data-original="#FFFFFF" class="active-path"/>
	<circle style="fill:#FFFFFF" cx="182.26" cy="139.956" r="31.342" data-original="#FFFFFF" class="active-path"/>
	<circle style="fill:#FFFFFF" cx="329.747" cy="139.956" r="31.342" data-original="#FFFFFF" class="active-path"/>
</g></g> </svg>
