<?xml version="1.0" encoding="iso-8859-1"?>
<!-- Generator: Adobe Illustrator 19.0.0, SVG Export Plug-In . SVG Version: 6.00 Build 0)  -->
<svg version="1.1" id="Capa_1" xmlns="http://www.w3.org/2000/svg" xmlns:xlink="http://www.w3.org/1999/xlink" x="0px" y="0px"
	 viewBox="0 0 512.104 512.104" style="enable-background:new 0 0 512.104 512.104;" xml:space="preserve">
<g transform="translate(0 -1)">
	<g transform="translate(12 2)">
		<path style="fill:#0377BC;" d="M389.119,152.704c0.056,56.504-32.762,107.88-84.053,131.584l-5.291-11.52
			c50.825-34.389,74.499-97.048,59.111-156.453C343.498,56.91,292.381,13.624,231.252,8.235c4.254-0.416,8.526-0.615,12.8-0.597
			c38.475-0.003,75.375,15.279,102.581,42.485S389.122,114.229,389.119,152.704z"/>
		<path style="fill:#02A9F4;" d="M363.519,152.704c0.079,48.141-23.822,93.16-63.744,120.064l-16.213-34.901
			c39.955-18.543,61.644-62.371,52.152-105.383c-9.492-43.013-47.614-73.641-91.661-73.646c-4.285-0.033-8.566,0.28-12.8,0.939
			c-41.263,5.668-73.852,37.856-80.029,79.046c-6.177,41.189,15.535,81.522,53.32,99.045l-21.504,46.421
			c-7.096-3.234-13.892-7.089-20.309-11.52c-50.825-34.389-74.499-97.048-59.111-156.453S170.123,13.624,231.252,8.235
			C306.137,14.799,363.572,77.532,363.519,152.704z"/>
		<path style="fill:#00BCD4;" d="M337.919,152.704c-0.008,36.545-21.213,69.768-54.357,85.163l-21.589-46.421
			c18.177-8.412,28.055-28.335,23.749-47.896c-4.307-19.56-21.64-33.492-41.669-33.492s-37.362,13.932-41.669,33.492
			c-4.307,19.56,5.572,39.483,23.749,47.896l-21.589,46.421c-42.284-19.615-63.771-67.286-50.462-111.958
			s57.38-72.812,103.505-66.089C303.71,66.542,337.916,106.092,337.919,152.704z"/>
		<path style="fill:#009688;" d="M286.719,152.704c-0.023,16.624-9.673,31.731-24.747,38.741l-10.155-22.016
			c-1.415-3.008-4.441-4.928-7.765-4.928c-3.324,0-6.35,1.92-7.765,4.928l-10.155,22.016c-19.238-8.897-29.031-30.565-22.996-50.883
			c6.035-20.318,26.068-33.128,47.043-30.081C271.155,113.528,286.715,131.508,286.719,152.704z"/>
	</g>
	<g>
		<path d="M8.585,513.104h435.2c4.713,0,8.533-3.82,8.533-8.533s-3.821-8.533-8.533-8.533h-20.151l-95.397-205.856
			c62.232-33.133,93.917-104.378,76.842-172.781C388.004,48.996,326.555,1,256.052,1S124.1,48.996,107.025,117.4
			s14.61,139.648,76.842,172.781L88.469,496.037H8.585c-4.713,0-8.533,3.82-8.533,8.533S3.872,513.104,8.585,513.104z
			 M188.514,393.637l67.538-27.629l67.538,27.629H188.514z M219.146,254.639l22.223,15.873l-44.215,31.583L219.146,254.639z
			 M221.919,154.704c-0.05-15.887,10.868-29.708,26.335-33.337c15.467-3.63,31.393,3.892,38.416,18.143
			c7.023,14.251,3.285,31.462-9.016,41.517l-6.118-13.201c-2.794-6.032-8.836-9.892-15.483-9.892c-6.647,0-12.689,3.86-15.483,9.892
			l-6.118,13.201C226.566,174.553,221.973,164.905,221.919,154.704z M245.773,197.18c0.022-0.045,0.066-0.071,0.087-0.117
			c0.022-0.048,0.015-0.1,0.036-0.147L256.052,175l10.156,21.915c0.021,0.048,0.014,0.099,0.036,0.147
			c0.029,0.062,0.079,0.105,0.109,0.166l15.884,34.276h-52.37L245.773,197.18z M272.089,248.571l-16.037,11.454l-16.037-11.454
			H272.089z M306.223,316.837H205.881L256.052,281L306.223,316.837z M289.456,333.904l-33.404,13.667l-33.404-13.667H289.456z
			 M330.462,335.569l24.268,52.367l-76.141-31.149L330.462,335.569z M314.95,302.096l-44.215-31.583l22.223-15.873L314.95,302.096z
			 M299.412,227.98l-14.428-31.134c18.517-12.683,26.615-35.946,19.977-57.385c-6.638-21.439-26.466-36.056-48.909-36.056
			c-22.444,0-42.271,14.617-48.909,36.056s1.46,44.703,19.977,57.385l-14.428,31.134c-33.136-19.549-49.093-58.855-38.96-95.97
			s43.848-62.86,82.321-62.86s72.188,25.745,82.321,62.86C348.505,169.125,332.549,208.43,299.412,227.98z M181.641,335.569
			l51.873,21.218l-76.141,31.149L181.641,335.569z M146.822,410.704h17.939c-9.745,6.266-18.991,13.276-27.655,20.968
			L146.822,410.704z M365.282,410.704l9.716,20.968c-8.664-7.692-17.91-14.702-27.655-20.968H365.282z M119.519,154.704
			c-0.034-66.737,48.182-123.719,114.005-134.731s129.96,27.174,151.65,90.288s-5.425,132.66-64.111,164.436l-14.377-31.023
			c40.39-22.977,60.245-70.27,48.362-115.193c-11.884-44.923-52.527-76.213-98.995-76.213s-87.111,31.289-98.995,76.213
			c-11.884,44.923,7.971,92.216,48.362,115.193l-14.377,31.023C147.042,250.799,119.609,204.776,119.519,154.704z M116.1,476.998
			c0.54-0.326,1.04-0.714,1.489-1.156c0.533-0.65,53.854-65.138,95.796-65.138h85.333c41.941,0,95.262,64.487,95.796,65.138
			c0.449,0.442,0.949,0.83,1.489,1.156l8.823,19.04H107.278L116.1,476.998z"/>
		<path d="M503.519,496.037h-25.6c-4.713,0-8.533,3.82-8.533,8.533s3.821,8.533,8.533,8.533h25.6c4.713,0,8.533-3.82,8.533-8.533
			S508.232,496.037,503.519,496.037z"/>
	</g>
</g>
<g>
</g>
<g>
</g>
<g>
</g>
<g>
</g>
<g>
</g>
<g>
</g>
<g>
</g>
<g>
</g>
<g>
</g>
<g>
</g>
<g>
</g>
<g>
</g>
<g>
</g>
<g>
</g>
<g>
</g>
</svg>
