<?xml version="1.0" encoding="iso-8859-1"?>
<!-- Generator: Adobe Illustrator 19.0.0, SVG Export Plug-In . SVG Version: 6.00 Build 0)  -->
<svg version="1.1" id="Layer_1" xmlns="http://www.w3.org/2000/svg" xmlns:xlink="http://www.w3.org/1999/xlink" x="0px" y="0px"
	 viewBox="0 0 512 512" style="enable-background:new 0 0 512 512;" xml:space="preserve">
<circle style="fill:#FABC3D;" cx="256" cy="256" r="256"/>
<g>
	<path style="fill:#DF2C2C;" d="M107.055,395.636c0,5.143,4.166,9.309,9.309,9.309h74.473c5.143,0,9.309-4.166,9.309-9.309V358.4
		c0-5.143-4.166-9.309-9.309-9.309h-74.473c-5.143,0-9.309,4.166-9.309,9.309V395.636z"/>
	<path style="fill:#DF2C2C;" d="M162.909,293.236v37.236c0,5.12-4.189,9.309-9.309,9.309h-46.545v-55.855H153.6
		C158.72,283.927,162.909,288.116,162.909,293.236z"/>
	<path style="fill:#DF2C2C;" d="M172.218,330.473c0,5.143,4.166,9.309,9.309,9.309H256c5.143,0,9.309-4.166,9.309-9.309v-37.236
		c0-5.143-4.166-9.309-9.309-9.309h-74.473c-5.143,0-9.309,4.166-9.309,9.309V330.473z"/>
	<path style="fill:#DF2C2C;" d="M162.909,162.909v37.236c0,5.12-4.189,9.309-9.309,9.309h-46.545V153.6H153.6
		C158.72,153.6,162.909,157.789,162.909,162.909z"/>
	<path style="fill:#DF2C2C;" d="M172.218,200.145c0,5.143,4.166,9.309,9.309,9.309H256c5.143,0,9.309-4.166,9.309-9.309v-37.236
		c0-5.143-4.166-9.309-9.309-9.309h-74.473c-5.143,0-9.309,4.166-9.309,9.309V200.145z"/>
	<path style="fill:#DF2C2C;" d="M274.618,330.473c0,5.143,4.166,9.309,9.309,9.309H358.4c5.143,0,9.309-4.166,9.309-9.309v-37.236
		c0-5.143-4.166-9.309-9.309-9.309h-74.473c-5.143,0-9.309,4.166-9.309,9.309V330.473z"/>
	<path style="fill:#DF2C2C;" d="M209.455,395.636c0,5.143,4.166,9.309,9.309,9.309h74.473c5.143,0,9.309-4.166,9.309-9.309V358.4
		c0-5.143-4.166-9.309-9.309-9.309h-74.473c-5.143,0-9.309,4.166-9.309,9.309V395.636z"/>
	<path style="fill:#DF2C2C;" d="M107.055,265.309c0,5.143,4.166,9.309,9.309,9.309h74.473c5.143,0,9.309-4.166,9.309-9.309v-37.236
		c0-5.143-4.166-9.309-9.309-9.309h-74.473c-5.143,0-9.309,4.166-9.309,9.309V265.309z"/>
	<path style="fill:#DF2C2C;" d="M200.145,107.055v27.927c0,5.12-4.189,9.309-9.309,9.309h-74.473c-5.12,0-9.309-4.189-9.309-9.309
		v-27.927H200.145z"/>
	<path style="fill:#DF2C2C;" d="M311.855,395.636c0,5.143,4.166,9.309,9.309,9.309h74.473c5.143,0,9.309-4.166,9.309-9.309V358.4
		c0-5.143-4.166-9.309-9.309-9.309h-74.473c-5.143,0-9.309,4.166-9.309,9.309V395.636z"/>
	<path style="fill:#DF2C2C;" d="M214.095,273.32c11.199-19.288,23.208-37.483,36.054-54.556h-31.386
		c-5.139,0-9.309,4.17-9.309,9.309v37.236C209.455,268.739,211.33,271.704,214.095,273.32z"/>
</g>
<path style="fill:#F0F1F1;" d="M205.931,287.795c-1.736,3.188-1.457,7.098,0.712,10.007c2.169,2.909,5.832,4.301,9.384,3.551
	c36.375-7.675,70.507-18.358,102.405-32.047c2.621-1.122,4.58-3.389,5.32-6.139s0.186-5.697-1.517-7.983l-41.686-55.948
	c-1.704-2.285-4.361-3.668-7.215-3.742c-2.849-0.079-5.581,1.154-7.405,3.347C243.689,225.489,223.693,255.139,205.931,287.795z"/>
<path style="fill:#FFFFFF;" d="M280.543,199.238c-1.704-2.285-4.361-3.668-7.21-3.742c-2.853-0.079-5.581,1.154-7.405,3.347
	c-22.239,26.647-42.235,56.301-59.997,88.958c-1.736,3.188-1.457,7.094,0.712,10.007c0.107,0.144,0.256,0.237,0.368,0.372
	l93.859-71.661L280.543,199.238z"/>
<path style="fill:#E2E4E5;" d="M331.646,167.457c-5.046,3.654-12.67,9.495-18.604,15.434
	c-10.673,10.673-10.673,21.588-10.673,31.218c0,10.352-10.366,14.061-10.78,14.201c-2.439,0.815-3.756,3.449-2.942,5.888
	c0.819,2.453,3.468,3.756,5.888,2.942c0.698-0.233,17.147-5.916,17.147-23.035c0-8.955,0-16.691,7.945-24.637
	c5.581-5.581,13.019-11.241,17.799-14.699L331.646,167.457z"/>
<path style="fill:#84462D;" d="M346.596,178.888c-2.02,1.592-4.943,1.247-6.535-0.773L328.527,163.5
	c-1.592-2.02-1.247-4.943,0.773-6.535l54.807-43.25c4.035-3.184,9.891-2.495,13.075,1.541l5.767,7.308
	c3.184,4.035,2.495,9.891-1.541,13.075L346.596,178.888z"/>
<path style="fill:#9C6144;" d="M397.177,115.251c-3.184-4.035-9.039-4.724-13.075-1.541l-54.807,43.25
	c-2.02,1.592-2.365,4.52-0.773,6.535l5.734,7.266l66.602-50.846L397.177,115.251z"/>
<g>
</g>
<g>
</g>
<g>
</g>
<g>
</g>
<g>
</g>
<g>
</g>
<g>
</g>
<g>
</g>
<g>
</g>
<g>
</g>
<g>
</g>
<g>
</g>
<g>
</g>
<g>
</g>
<g>
</g>
</svg>
