<?xml version="1.0" encoding="iso-8859-1"?>
<!-- Generator: Adobe Illustrator 19.0.0, SVG Export Plug-In . SVG Version: 6.00 Build 0)  -->
<svg version="1.1" id="Layer_1" xmlns="http://www.w3.org/2000/svg" xmlns:xlink="http://www.w3.org/1999/xlink" x="0px" y="0px"
	 viewBox="0 0 504 504" style="enable-background:new 0 0 504 504;" xml:space="preserve">
<circle style="fill:#FFD778;" cx="252" cy="252" r="252"/>
<path style="fill:#2C424F;" d="M300.4,170.8v-11.6c0-10.2-8.4-18.6-18.6-18.6H222c-10.2,0-18.6,8.4-18.6,18.6v11.6h-9v-11.6
	c0-15.2,12.4-27.6,27.6-27.6h59.8c15.2,0,27.6,12.4,27.6,27.6v11.6H300.4z"/>
<path style="fill:#527F99;" d="M116.4,372.2h271.2c7,0,12.8-5.8,12.8-12.8v-180c0-7-5.8-12.8-12.8-12.8H116.4
	c-7,0-12.8,5.8-12.8,12.8v180C103.6,366.4,109.2,372.2,116.4,372.2z"/>
<circle style="fill:#FFFFFF;" cx="252" cy="269.4" r="74.4"/>
<g>
	<rect x="236.2" y="215" style="fill:#E65336;" width="31" height="114.4"/>
	<rect x="194.6" y="256.6" style="fill:#E65336;" width="114.4" height="31"/>
</g>
<g>
</g>
<g>
</g>
<g>
</g>
<g>
</g>
<g>
</g>
<g>
</g>
<g>
</g>
<g>
</g>
<g>
</g>
<g>
</g>
<g>
</g>
<g>
</g>
<g>
</g>
<g>
</g>
<g>
</g>
</svg>
