<?xml version="1.0" encoding="iso-8859-1"?>
<!-- Generator: Adobe Illustrator 19.0.0, SVG Export Plug-In . SVG Version: 6.00 Build 0)  -->
<svg version="1.1" id="Capa_1" xmlns="http://www.w3.org/2000/svg" xmlns:xlink="http://www.w3.org/1999/xlink" x="0px" y="0px"
	 viewBox="0 0 512 512" style="enable-background:new 0 0 512 512;" xml:space="preserve">
<circle style="fill:#FABC3D;" cx="256" cy="256" r="256"/>
<g>
	<polygon style="fill:#9C5438;" points="348,160 348,312 172,312 172,160 164,160 164,404 172,404 172,336 348,336 348,404 356,404 
		356,160 	"/>
	<rect x="136" y="160" style="fill:#9C5438;" width="8" height="244"/>
</g>
<rect x="144" y="160" style="fill:#D16B00;" width="20" height="244"/>
<polygon style="fill:#3E3E3F;" points="136,144 136,152 144,152 144,160 164,160 164,152 172,152 172,144 "/>
<path style="fill:#D12136;" d="M172,136c0,4.418-3.582,8-8,8h-20c-4.418,0-8-3.582-8-8v-28c0-4.418,3.582-8,8-8h20
	c4.418,0,8,3.582,8,8V136z"/>
<rect x="144" y="108" style="fill:#FFFFFF;" width="8" height="16"/>
<rect x="376" y="160" style="fill:#9C5438;" width="8" height="244"/>
<rect x="356" y="160" style="fill:#D16B00;" width="20" height="244"/>
<polygon style="fill:#3E3E3F;" points="348,144 348,152 356,152 356,160 376,160 376,152 384,152 384,144 "/>
<path style="fill:#D12136;" d="M384,136c0,4.418-3.582,8-8,8h-20c-4.418,0-8-3.582-8-8v-28c0-4.418,3.582-8,8-8h20
	c4.418,0,8,3.582,8,8V136z"/>
<rect x="356" y="108" style="fill:#FFFFFF;" width="8" height="16"/>
<rect x="172" y="336" style="fill:#824027;" width="176" height="8"/>
<rect x="96" y="204" style="fill:#FFFFFF;" width="328" height="64"/>
<rect x="96" y="192" style="fill:#FA5655;" width="328" height="12"/>
<rect x="96" y="268" style="fill:#9C1928;" width="328" height="12"/>
<g>
	<polygon style="fill:#D12136;" points="96,204 96,212 152,268 228,268 164,204 	"/>
	<polygon style="fill:#D12136;" points="240,204 304,268 380,268 316,204 	"/>
	<polygon style="fill:#D12136;" points="392,204 424,236 424,204 	"/>
</g>
<g>
	<rect x="136" y="280" style="fill:#824027;" width="36" height="8"/>
	<rect x="348" y="280" style="fill:#824027;" width="36" height="8"/>
</g>
<g>
</g>
<g>
</g>
<g>
</g>
<g>
</g>
<g>
</g>
<g>
</g>
<g>
</g>
<g>
</g>
<g>
</g>
<g>
</g>
<g>
</g>
<g>
</g>
<g>
</g>
<g>
</g>
<g>
</g>
</svg>
