<?xml version="1.0"?>
<svg xmlns="http://www.w3.org/2000/svg" xmlns:xlink="http://www.w3.org/1999/xlink" version="1.1" id="Layer_1" x="0px" y="0px" viewBox="0 0 512 512" style="enable-background:new 0 0 512 512;" xml:space="preserve" width="512px" height="512px" class=""><g><script xmlns=""/><circle style="fill:#91ABCD" cx="256" cy="256" r="256" data-original="#474F59" class="active-path" data-old_color="#A3C0E5"/><g>
	<rect x="90.479" y="429.585" style="fill:#CCCBCA;" width="331.049" height="18.937" data-original="#CCCBCA" class=""/>
	<rect x="78.656" y="448.512" style="fill:#E6E5E5;" width="354.7" height="18.904" data-original="#E6E5E5" class=""/>
	<rect x="78.656" y="269.147" style="fill:#CCCBCA;" width="354.7" height="18.908" data-original="#CCCBCA" class=""/>
	<polygon style="fill:#2B1010" points="256,154.928 90.479,269.16 421.521,269.16  " data-original="#FFFFFF" class="" data-old_color="#EFEF53"/>
	<polygon style="fill:#CCCBCA;" points="145.794,251.93 256,175.877 366.202,251.93  " data-original="#CCCBCA" class=""/>
</g><path style="fill:#2B1010" d="M256,243.203c-12.357,0-22.402-10.048-22.402-22.402c0-12.361,10.045-22.416,22.402-22.416  c12.334,0,22.379,10.055,22.379,22.416C278.379,233.155,268.334,243.203,256,243.203z M256,208.728  c-6.656,0-12.063,5.417-12.063,12.07s5.411,12.057,12.063,12.057c6.653,0,12.083-5.407,12.083-12.057  C268.083,214.145,262.656,208.728,256,208.728z" data-original="#FFFFFF" class="" data-old_color="#EFEF53"/><path style="fill:#0E6918" d="M392.251,71.512H299.11v50.486c0,3.951,3.198,7.161,7.155,7.161h85.986l-28.811-28.827  L392.251,71.512z" data-original="#F77B55" class="" data-old_color="#00FF1C"/><path style="fill:#FF0005" d="M301.215,59.266c-1.381,1.397-2.104,3.234-2.104,5.064v57.668c0-3.957,3.198-7.181,7.155-7.181  h37.776c2.233,0,4.264-1.037,5.579-2.676c0.991-1.232,1.612-2.791,1.612-4.489V57.166h-44.967  C304.445,57.166,302.605,57.859,301.215,59.266z" data-original="#EE643C" class="" data-old_color="#C52F1A"/><path style="fill:#EFEF53" d="M351.232,49.988v57.668c0-3.967-3.237-7.185-7.194-7.185h-85.963V42.816h85.963  C347.995,42.816,351.232,46.024,351.232,49.988z" data-original="#FF916E" class="" data-old_color="#CECE48"/><path style="fill:#2B1010" d="M318.368,71.65c0,7.561-6.174,13.689-13.708,13.689c-7.581,0-13.705-6.124-13.705-13.689  c0-7.597,6.124-13.732,13.705-13.732C312.194,57.919,318.368,64.056,318.368,71.65z" data-original="#FFFFFF" class="" data-old_color="#EFEF53"/><rect x="253.926" y="31.4" style="fill:#D9D8D7" width="4.149" height="122.137" data-original="#D9D8D7" class=""/><g>
	<circle style="fill:#2B1010" cx="256" cy="26.657" r="5.173" data-original="#FFFFFF" class="" data-old_color="#EFEF53"/>
	<path style="fill:#2B1010" d="M266.346,153.534c0,1.321-0.505,2.646-1.519,3.66c-1.014,1.011-2.332,1.513-3.65,1.513h-10.349   c-1.318,0-2.639-0.502-3.65-1.513c-1.014-1.017-1.519-2.339-1.519-3.66l0,0c0-1.325,0.505-2.646,1.519-3.65   c1.014-1.021,2.332-1.523,3.65-1.523h10.349c1.318,0,2.639,0.502,3.65,1.523C265.84,150.891,266.346,152.209,266.346,153.534   L266.346,153.534z" data-original="#FFFFFF" class="" data-old_color="#EFEF53"/>
	<path style="fill:#2B1010" d="M113.542,288.068v9.447v132.063h26.006l0.013-101.914c0-16.589,13.375-30.03,29.917-30.152h0.426   c16.5,0.122,29.812,13.438,29.937,29.924v102.142h26.016V327.667c0-16.589,13.395-30.03,29.914-30.152h0.426   c16.562,0.122,29.95,13.56,29.95,30.152v101.914h26.013v-102.07c0.083-16.516,13.421-29.874,29.911-29.997h0.423   c16.559,0.122,29.934,13.56,29.934,30.152l0.013,101.914h26.026V288.068H113.542z" data-original="#FFFFFF" class="" data-old_color="#EFEF53"/>
</g><g>
	<path style="fill:#CCCBCA;" d="M169.69,297.502c-16.632,0-30.129,13.497-30.129,30.165v101.914h6.349V327.667   c0-13.137,10.666-23.777,23.78-23.777c13.134,0,23.82,10.643,23.82,23.777v101.914h6.342V327.667   C199.852,310.999,186.358,297.502,169.69,297.502z" data-original="#CCCBCA" class=""/>
	<path style="fill:#CCCBCA;" d="M255.983,297.502c-16.628,0-30.125,13.497-30.125,30.165v101.914h6.349V327.667   c0-13.137,10.666-23.777,23.777-23.777c13.13,0,23.836,10.643,23.836,23.777v101.914h6.329V327.667   C286.149,310.999,272.652,297.502,255.983,297.502z" data-original="#CCCBCA" class=""/>
	<path style="fill:#CCCBCA;" d="M342.284,297.502c-16.632,0-30.129,13.497-30.129,30.165v101.914h6.369V327.667   c0-13.137,10.646-23.777,23.76-23.777c13.12,0,23.816,10.643,23.816,23.777v101.914h6.326V327.667   C372.426,310.999,358.932,297.502,342.284,297.502z" data-original="#CCCBCA" class=""/>
</g></g> </svg>
