<?xml version="1.0" encoding="iso-8859-1"?>
<!-- Generator: Adobe Illustrator 19.0.0, SVG Export Plug-In . SVG Version: 6.00 Build 0)  -->
<svg version="1.1" id="Capa_1" xmlns="http://www.w3.org/2000/svg" xmlns:xlink="http://www.w3.org/1999/xlink" x="0px" y="0px"
	 viewBox="0 0 512 512" style="enable-background:new 0 0 512 512;" xml:space="preserve">
<rect x="98.37" y="293.12" style="fill:#F7CF9C;" width="315.25" height="201.81"/>
<rect x="98.37" y="293.12" style="fill:#EAB883;" width="29.25" height="201.81"/>
<g>
	<path style="fill:#CC905E;" d="M354.789,384.142c-4.267,0-7.727-3.459-7.727-7.727v-18.196c0-4.268,3.459-7.727,7.727-7.727
		c4.267,0,7.727,3.459,7.727,7.727v18.196C362.516,380.683,359.056,384.142,354.789,384.142z"/>
	<path style="fill:#CC905E;" d="M384.378,384.142c-4.267,0-7.727-3.459-7.727-7.727v-18.196c0-4.268,3.459-7.727,7.727-7.727
		c4.267,0,7.727,3.459,7.727,7.727v18.196C392.105,380.683,388.646,384.142,384.378,384.142z"/>
	<path style="fill:#CC905E;" d="M354.789,435.055c-4.267,0-7.727-3.459-7.727-7.727v-18.197c0-4.268,3.459-7.727,7.727-7.727
		c4.267,0,7.727,3.459,7.727,7.727v18.197C362.516,431.596,359.056,435.055,354.789,435.055z"/>
	<path style="fill:#CC905E;" d="M384.378,435.055c-4.267,0-7.727-3.459-7.727-7.727v-18.197c0-4.268,3.459-7.727,7.727-7.727
		c4.267,0,7.727,3.459,7.727,7.727v18.197C392.105,431.596,388.646,435.055,384.378,435.055z"/>
	<path style="fill:#CC905E;" d="M127.623,384.142c-4.267,0-7.727-3.459-7.727-7.727v-18.196c0-4.268,3.459-7.727,7.727-7.727
		c4.268,0,7.727,3.459,7.727,7.727v18.196C135.35,380.683,131.89,384.142,127.623,384.142z"/>
	<path style="fill:#CC905E;" d="M157.212,384.142c-4.267,0-7.727-3.459-7.727-7.727v-18.196c0-4.268,3.459-7.727,7.727-7.727
		s7.727,3.459,7.727,7.727v18.196C164.939,380.683,161.48,384.142,157.212,384.142z"/>
	<path style="fill:#CC905E;" d="M127.623,435.055c-4.267,0-7.727-3.459-7.727-7.727v-18.197c0-4.268,3.459-7.727,7.727-7.727
		c4.268,0,7.727,3.459,7.727,7.727v18.197C135.35,431.596,131.89,435.055,127.623,435.055z"/>
	<path style="fill:#CC905E;" d="M157.212,435.055c-4.267,0-7.727-3.459-7.727-7.727v-18.197c0-4.268,3.459-7.727,7.727-7.727
		s7.727,3.459,7.727,7.727v18.197C164.939,431.596,161.48,435.055,157.212,435.055z"/>
	<path style="fill:#CC905E;" d="M237.814,384.142c-4.267,0-7.727-3.459-7.727-7.727v-18.196c0-4.268,3.459-7.727,7.727-7.727
		s7.727,3.459,7.727,7.727v18.196C245.541,380.683,242.082,384.142,237.814,384.142z"/>
	<path style="fill:#CC905E;" d="M267.404,384.142c-4.267,0-7.727-3.459-7.727-7.727v-18.196c0-4.268,3.459-7.727,7.727-7.727
		c4.267,0,7.727,3.459,7.727,7.727v18.196C275.131,380.683,271.671,384.142,267.404,384.142z"/>
</g>
<path style="fill:#9E7430;" d="M206.609,408.101h-3.346v31.75v23.335v31.75c29.141,0,70.679,0,99.764,0c0-19.282,0-67.742,0-86.836
	C290.316,408.101,216.785,408.101,206.609,408.101z"/>
<path style="fill:#8E6325;" d="M253.145,408.101h-46.536h-3.346v31.75v23.335v31.75c14.426,0,35.511,0,49.882,0L253.145,408.101
	L253.145,408.101z"/>
<path style="fill:#7F551D;" d="M230.521,408.101h-25.43h-1.828v31.75v23.335v31.75c9.118,0,18.18,0,27.258,0V408.101z"/>
<rect x="98.37" y="279.21" style="fill:#EAB883;" width="315.25" height="41.727"/>
<rect x="98.37" y="279.21" style="fill:#DDA878;" width="29.25" height="41.727"/>
<polygon style="fill:#E6E6E6;" points="181.308,279.214 181.308,465.351 181.308,470.273 209.441,470.273 209.441,465.351 
	209.441,279.214 "/>
<polygon style="fill:#CCCCCC;" points="181.308,279.214 181.308,465.351 181.308,470.273 195.374,470.273 195.374,465.351 
	195.374,279.214 "/>
<path style="fill:#E6E6E6;" d="M296.849,279.214c0,9.675,0,180.085,0,191.06h28.133c0-10.976,0-181.384,0-191.06H296.849z"/>
<g>
	<path style="fill:#CCCCCC;" d="M296.849,279.214c0,9.675,0,180.085,0,191.06h14.067c0-10.976,0-181.384,0-191.06H296.849z"/>
	<path style="fill:#CCCCCC;" d="M327.914,484.182h-33.996c-7.65,0-13.909-6.259-13.909-13.909l0,0
		c0-7.65,6.259-13.909,13.909-13.909h33.996c7.65,0,13.909,6.259,13.909,13.909l0,0
		C341.823,477.923,335.564,484.182,327.914,484.182z"/>
	<path style="fill:#CCCCCC;" d="M212.372,484.182h-33.996c-7.65,0-13.909-6.259-13.909-13.909l0,0
		c0-7.65,6.259-13.909,13.909-13.909h33.996c7.65,0,13.909,6.259,13.909,13.909l0,0
		C226.281,477.923,220.022,484.182,212.372,484.182z"/>
</g>
<g>
	<path style="fill:#B7B7B7;" d="M188.341,470.273c0-7.65,6.259-13.909,13.909-13.909h-23.874c-7.65,0-13.909,6.259-13.909,13.909
		s6.259,13.909,13.909,13.909h23.874C194.6,484.182,188.341,477.923,188.341,470.273z"/>
	<path style="fill:#B7B7B7;" d="M303.883,470.273c0-7.65,6.259-13.909,13.909-13.909h-23.874c-7.65,0-13.909,6.259-13.909,13.909
		s6.259,13.909,13.909,13.909h23.874C310.142,484.182,303.883,477.923,303.883,470.273z"/>
</g>
<path style="fill:#ED5A5A;" d="M350.224,21.918c-11.336,0-79.222,0-90.547,0v62.851c26.632,0,63.267,0,89.685,0
	c2.12,0,3.838-1.719,3.838-3.838V24.895C353.2,23.251,351.868,21.918,350.224,21.918z"/>
<path style="fill:#E04B4B;" d="M259.677,21.918v62.851c8.958,0,29.042,0,38.049,0V21.918
	C288.718,21.918,268.634,21.918,259.677,21.918z"/>
<path style="fill:#E6E6E6;" d="M253.627,0.224c-6.583,1.134-11.535,6.861-11.535,13.692c0,32.503,0,113.692,0,144.988h27.818
	c0-6.881,0-133.777,0-144.988C269.91,5.29,262.121-1.274,253.627,0.224z"/>
<path style="fill:#CCCCCC;" d="M256.001,13.916c0-5.148,2.805-9.626,6.964-12.027c-9.259-5.373-20.873,1.366-20.873,12.027
	c0,32.503,0,113.692,0,144.988h13.909C256.001,142.561,256.001,32.226,256.001,13.916z"/>
<path id="SVGCleanerId_0" style="fill:#9E7430;" d="M431.565,247.041L301.32,153.035c-4.285-3.093-9.436-4.758-14.72-4.758h-63.788
	c-4.715,0-9.311,1.485-13.134,4.245L81.986,244.685c-4.978,3.593-3.1,9.21-3.501,12.598c0,4.09,0,7.518,0,11.559h0.001
	l-0.061,13.881c0.262,5.869,5.088,10.4,10.872,10.4c14.669,0,324.955,0,333.392,0c4.887,0,9.022-3.218,10.4-7.652
	c0.779-2.502,0.385-4.072,0.49-8.884c0-0.34,0-8.29,0-7.807c0-0.184,0-5.802,0-5.691v-6.514
	C433.186,252.339,434.459,249.131,431.565,247.041z"/>
<g>
	<path id="SVGCleanerId_0_1_" style="fill:#9E7430;" d="M431.565,247.041L301.32,153.035c-4.285-3.093-9.436-4.758-14.72-4.758
		h-63.788c-4.715,0-9.311,1.485-13.134,4.245L81.986,244.685c-4.978,3.593-3.1,9.21-3.501,12.598c0,4.09,0,7.518,0,11.559h0.001
		l-0.061,13.881c0.262,5.869,5.088,10.4,10.872,10.4c14.669,0,324.955,0,333.392,0c4.887,0,9.022-3.218,10.4-7.652
		c0.779-2.502,0.385-4.072,0.49-8.884c0-0.34,0-8.29,0-7.807c0-0.184,0-5.802,0-5.691v-6.514
		C433.186,252.339,434.459,249.131,431.565,247.041z"/>
</g>
<path style="fill:#8E6325;" d="M106.451,279.492L106.451,279.492c-0.001-7.053-0.001-13.35-0.001-20.402
	c0-3.195,1.535-6.196,4.126-8.066l142.357-102.748c-25.871,0.974-33.809-2.573-43.255,4.245L81.986,244.685
	c-4.978,3.593-3.1,9.21-3.501,12.598c0,4.077,0,7.52,0,11.559h0.001l-0.061,13.881c0.262,5.869,5.088,10.4,10.872,10.4h17.095
	L106.451,279.492z"/>
<path style="fill:#7F551D;" d="M433.088,285.471c0.853-2.742,0.344-3.912,0.49-20.166c-13.052,0-335.64,0-355.093,0v3.537h0.001
	l-0.061,13.881c0.262,5.869,5.088,10.4,10.872,10.4c13.43,0,321.73,0,333.392,0C427.575,293.123,431.709,289.904,433.088,285.471z"
	/>
<path style="fill:#724817;" d="M106.24,282.723l0.062-13.881h-0.001v-3.537c-8.196,0-15.479,0-27.816,0v3.537h0.001l-0.061,13.881
	c0.262,5.869,5.088,10.4,10.872,10.4c7.105,0,15.339,0,27.816,0C111.329,293.122,106.503,288.593,106.24,282.723z"/>
<path style="fill:#8E6325;" d="M472.578,495.717c-1.133-6.578-6.857-11.535-13.692-11.535c-85.185,0-319.968,0-405.77,0
	c-7.711,0-13.909,6.296-13.909,13.909c0,7.682,6.227,13.909,13.909,13.909c98.402,0,307.174,0,405.77,0
	C467.447,512,474.09,504.278,472.578,495.717z"/>
<path style="fill:#7F551D;" d="M111.764,494.526c1.577-5.951,6.984-10.344,13.43-10.344c-22.381,0-49.169,0-72.079,0
	c-7.788,0-13.909,6.379-13.909,13.909c0,7.682,6.227,13.909,13.909,13.909c14.835,0,55.595,0,72.079,0
	C116.057,512,109.384,503.299,111.764,494.526z"/>
<g>
</g>
<g>
</g>
<g>
</g>
<g>
</g>
<g>
</g>
<g>
</g>
<g>
</g>
<g>
</g>
<g>
</g>
<g>
</g>
<g>
</g>
<g>
</g>
<g>
</g>
<g>
</g>
<g>
</g>
</svg>
