<?xml version="1.0" encoding="iso-8859-1"?>
<!-- Generator: Adobe Illustrator 19.0.0, SVG Export Plug-In . SVG Version: 6.00 Build 0)  -->
<svg version="1.1" id="Layer_1" xmlns="http://www.w3.org/2000/svg" xmlns:xlink="http://www.w3.org/1999/xlink" x="0px" y="0px"
	 viewBox="0 0 512 512" style="enable-background:new 0 0 512 512;" xml:space="preserve">
<circle style="fill:#5E83A2;" cx="256" cy="256" r="256"/>
<path style="fill:#487396;" d="M405.34,154.252l-36.236,23.812l-46.42,32.64L126.512,348.28l-21.532,12.916l150.392,150.788
	c0.212,0,0.416,0.016,0.628,0.016c139.684,0,253.168-111.904,255.872-250.94L405.34,154.252z"/>
<g>
	<polygon style="fill:#072F49;" points="256.368,183.928 105.016,157.012 105.016,362.104 256.368,389.024 	"/>
	<polygon style="fill:#072F49;" points="255.628,183.928 406.984,157.012 406.984,362.104 255.628,389.024 	"/>
</g>
<polygon style="fill:#FFFFFF;" points="256.368,383.744 110.472,357.796 110.472,163.26 256.368,189.208 "/>
<path style="fill:#E7E8D5;" d="M256.368,383.744c-40.732-27.4-83.988-42.964-124.724-46.696c0-64.848,0-129.692,0-194.54
	c40.736,3.736,83.992,19.3,124.724,46.7C256.368,254.052,256.368,318.9,256.368,383.744z"/>
<path style="fill:#C0C3D2;" d="M256.4,383.744c-30.912-45.416-74.872-67.792-105.78-67.144c0-64.536,0-129.076,0-193.612
	c30.908-0.652,74.868,21.728,105.776,67.136C256.4,254.664,256.4,319.204,256.4,383.744z"/>
<path style="fill:#B0B4C3;" d="M242.3,172.004c-5.752,14.732-7.42,31.444-12.46,46.388c-5.444,16.188-11.356,32.476-18.888,47.84
	c-9.504,19.388-20.828,37.9-34.604,54.372c26.728,8.256,57.016,29.288,80.052,63.14v-193.62
	C251.948,183.588,247.208,177.584,242.3,172.004z"/>
<polygon style="fill:#C0C3D2;" points="255.628,383.744 401.524,357.796 401.524,163.26 255.628,189.208 "/>
<path style="fill:#DADCC6;" d="M255.628,383.744c40.736-27.4,83.992-42.964,124.724-46.696c0-64.848,0-129.692,0-194.54
	c-40.732,3.736-83.988,19.3-124.724,46.7C255.628,254.052,255.628,318.9,255.628,383.744z"/>
<path style="fill:#FFFFFF;" d="M255.596,383.744c30.92-45.416,74.876-67.788,105.78-67.14c0-64.536,0-129.076,0-193.612
	c-30.908-0.652-74.86,21.728-105.78,67.136C255.596,254.664,255.596,319.204,255.596,383.744z"/>
<path style="fill:#EDEFE7;" d="M328.84,129.348c0.104,4.02-0.632,8.244-2.5,12.548c-8.6,19.804-10,42.832-14.96,63.716
	c-4.224,17.788-8.056,35.664-11.464,53.624c-5.708,30.016-9.416,60.356-14.324,90.492c25.648-22.508,53.968-33.584,75.788-33.124
	V122.988C351.568,122.78,340.44,124.916,328.84,129.348z"/>
<g>
</g>
<g>
</g>
<g>
</g>
<g>
</g>
<g>
</g>
<g>
</g>
<g>
</g>
<g>
</g>
<g>
</g>
<g>
</g>
<g>
</g>
<g>
</g>
<g>
</g>
<g>
</g>
<g>
</g>
</svg>
