<?xml version="1.0" encoding="iso-8859-1"?>
<!-- Generator: Adobe Illustrator 19.0.0, SVG Export Plug-In . SVG Version: 6.00 Build 0)  -->
<svg version="1.1" id="Layer_1" xmlns="http://www.w3.org/2000/svg" xmlns:xlink="http://www.w3.org/1999/xlink" x="0px" y="0px"
	 viewBox="0 0 508 508" style="enable-background:new 0 0 508 508;" xml:space="preserve">
<circle style="fill:#F8CF95;" cx="254" cy="254" r="254"/>
<path style="fill:#E4B174;" d="M384.8,108.4l-8.8,14l2.4,41.2l-21.6,64L252.8,116l-18,99.6l-86.4-110.4l-6,26.8l-3.6,67.6
	l-14.4,166.8l-21.2,14.4l126.8,126c8,0.8,15.6,1.2,24,1.2c140.4,0,254-113.6,254-254c0-8.4-0.4-16.8-1.2-24.8L384.8,108.4z"/>
<g>
	<path style="fill:#122528;" d="M151.6,109.6c-2.4-4.4-8-6-12.8-6c-10.8,0.4-16.4,8.8-14.8,19.6c1.2,9.2,9.6,16.8-2,22.8
		c-8.8,4.8-19.6,4-21.2,16.4c-0.8,4.8,0.4,9.6,1.2,14.4c0.4,4.8,0,10,0.8,14.8c1.6,10.8,5.2,22.4,4,33.6c-0.8,9.2-5.2,16.8-5.2,26.8
		c0,4.8-0.4,9.6,0,14.4c0.4,7.6,3.6,6.4,10,7.6c14.8,2,30.4,3.6,45.6,2.4c1.2-6.8,0.4-15.6,0.4-22.8c0-11.6,0.4-23.6-1.6-34.4
		c-1.6-8.8,0.4-18.8-1.2-28c-1.2-9.6-2.8-19.2-6.8-28.8c-1.2-2.8-5.6-8-5.2-11.2c0.4-5.6,6.4-4.4,10.4-5.2c-0.4-2,3.2-9.6,4.8-9.6
		c0.4-2.8-1.2-4-1.6-6.4c0-2.4,0.8-4,1.2-6.4c0.4-4.4-1.2-9.2-4.4-12.4"/>
	<path style="fill:#122528;" d="M366.4,104.4c-10,1.6-10.4,13.6-11.2,20.4c-1.2,14.4,7.2,11.2,11.6,14.8c2,1.6,1.2,2,2,4.8
		c2.8,8.8-10.4,17.6-14.4,24.4c-3.6,6.8-1.6,17.6-2.8,25.2c-0.4,2.4-0.4,6.8-1.6,9.2c-2,3.2-3.6,2.4-7.6,2.4
		c-6.8,0-12.8-0.8-19.6-1.2c5.6,1.2,7.6,6,12,9.2c2.8,2,2,2.4,6.4,2.4c2.8,0,5.2,0,8,0c2.4,16.8-2.8,32.8-3.6,49.6
		c-0.4,0-1.2,0-1.2,0c3.6,1.2,6,7.6,6.4,11.2c0.4,2.8-1.6,10.4,0.4,12.8c2.4,2.4,16.4-2,20.4-2.4c4.8-0.4,11.6,0,16-1.6
		c-3.2-4-2.4-11.6-2-16.4c0.8-7.2,3.6-8.4,8.4-12.8c6.4-6.4,2.8-18,3.6-26.4c0.4-9.2,12.8-16.8,18-24s3.6-17.2,3.6-26
		c0-8.4,1.2-24-6.4-29.6c-6.8-5.2-16.4-2.8-23.6-6.4c-5.6-3.2-6-6.8-3.6-12c2-4,2.8-8,3.2-12.8c0.4-6-1.2-8.4-6-12
		c-4-2.8-7.2-3.6-11.2-2.8C370.8,103.6,366.4,104.4,366.4,104.4z"/>
</g>
<rect x="164.8" y="282" style="fill:#AA5D27;" width="158" height="122.4"/>
<polygon style="fill:#CE7C3F;" points="167.6,404.4 100.4,379.6 100.4,263.6 167.6,282 "/>
<polygon style="fill:#975124;" points="388.4,379.6 321.2,404.4 321.2,282 388.4,263.6 "/>
<path style="fill:#122528;" d="M277.2,185.6c-0.4-6.4-2-12-3.2-18c-1.2-6.4-2-11.2-9.2-13.6c-4.8-1.6-12.8-3.2-13.2-9.2
	c-0.4-3.6,2-4.8,4-7.2c1.6-2.4,3.6-5.2,3.6-8c0.4-6.4-2.4-9.6-7.2-13.2c-2.4-2-4.8-3.6-8-2.8c-2.8,0.8-5.2,3.2-7.6,6
	c-3.6,4.4-2.8,12-0.8,16.8c1.2,2.4,4.4,3.6,5.6,6c1.6,3.2-1.2,6.4-3.6,8c-5.2,3.6-13.2,3.2-17.6,7.6c-2,1.2-2,4-2.8,6.8
	c-0.4,2.8-1.6,6-2.8,9.2c-2,6.4-3.2,12.4-5.2,18.4c-1.6,4.8-0.8,10.8-0.4,16c0.8,6,3.2,10.4,4.8,16c2,5.6,0.8,12,0.8,18.4l-1.2,6
	c-1.2,5.2,4.8,6.8,8.8,7.2c9.2,0.4,18.4,0,27.2,0c4.8,0,14.8,0.8,13.6-6c-0.4-2.4-2-4.8-2-7.6c-0.4-3.6,0-4.8,2.4-7.2
	c2.8-2.8,2.8-3.6,1.6-6.8c-1.6-4-3.2-8.8-2.8-13.6c0.4-4,2.4-4.4,5.6-6.4c2.4-2,4.4-4.4,6.4-6.8c2.4-2.8,3.2-4,3.2-7.6
	C277.2,190.8,277.6,188,277.2,185.6z M225.2,187.2c-0.4,2.8-0.4,6-1.2,8.8c-0.8,2.4-1.2,5.2-2.4,7.2c-0.8,2-2.4,5.6-4.4,6.8
	c-0.4-2.4-1.6-4-2-6.4s-0.4-5.2,0-7.2c0.4-2.8,1.6-5.2,2.8-7.6c0.8-2,1.6-4.4,2.8-6.8l3.2-2.4c-0.4,1.2,0.8,2.4,1.2,3.6
	C225.6,184.8,225.6,186,225.2,187.2z M265.6,193.6c-0.8,2-4.4,3.6-6,4c0-4,0.4-6.4,2.4-10l2.8-0.8
	C265.6,188.4,266,192.4,265.6,193.6z"/>
<polygon style="fill:#AA5D27;" points="401.6,244.8 346.4,260 132.8,260 89.2,244.8 177.2,227.2 316,227.2 "/>
<polygon style="fill:#D1D7D1;" points="221.6,230.8 265.6,230.8 318,253.6 167.6,253.6 "/>
<polygon style="fill:#FFFFFF;" points="213.6,235.6 273.2,235.6 302.4,249.6 184,249.6 "/>
<polygon style="fill:#B2BDB2;" points="214.4,236 216.4,236 198.8,245.6 195.6,245.6 "/>
<polygon style="fill:#809180;" points="217.6,236 219.2,236 211.2,241.2 208.8,241.2 "/>
<polygon style="fill:#DC4943;" points="220.8,236 222.4,236 213.2,242.4 210.8,242.4 "/>
<polygon style="fill:#E4B174;" points="223.6,236 225.6,236 222.4,238.8 220.4,238.8 "/>
<polygon style="fill:#CC8730;" points="226.8,236 228.4,236 224.4,240.4 222,240.4 "/>
<polygon style="fill:#60A799;" points="230,236 231.6,236 225.2,244 222.4,244 "/>
<polygon style="fill:#5B2C2C;" points="232.8,236 234.8,236 230.4,242.8 228,242.8 "/>
<polygon style="fill:#C07D85;" points="236,236 237.6,236 237.2,237.2 235.6,237.2 "/>
<polygon style="fill:#E9AFB4;" points="239.2,236 240.8,236 240.8,236.4 238.8,236.4 "/>
<polygon style="fill:#8D9949;" points="242,236 244,236 244,244.8 241.2,244.8 "/>
<polygon style="fill:#B92A27;" points="245.2,236 247.2,236 248,241.2 246,241.2 "/>
<polygon style="fill:#BA772A;" points="248.4,236 250,236 252.8,242.4 250.4,242.4 "/>
<polygon style="fill:#EB5F54;" points="251.6,236 253.2,236 255.2,239.2 253.2,239.2 "/>
<polygon style="fill:#976263;" points="254.4,236 256.4,236 258,238 256,238 "/>
<polygon style="fill:#F0B259;" points="257.6,236 259.2,236 266,242.4 263.6,242.4 "/>
<polygon style="fill:#EB5F54;" points="260.8,236 262.4,236 262.8,236.4 261.2,236.4 "/>
<polygon style="fill:#D0E198;" points="263.6,236 265.6,236 267.6,237.6 265.6,237.6 "/>
<polygon style="fill:#BE6B2F;" points="266.8,236 268.4,236 276,240.4 273.6,240.4 "/>
<polygon style="fill:#8ACFC1;" points="270,236 271.6,236 282.8,242 280.4,242 "/>
<polygon style="fill:#EBEBEB;" points="223.2,231.2 264,231.2 272.4,235.2 214.4,235.2 "/>
<polygon style="fill:#B92A27;" points="224.8,232.4 235.2,233.6 248.4,232.4 253.6,233.6 264.4,233.2 264.8,233.2 253.2,234 
	248,232.8 235.2,233.6 224,232.4 "/>
<g>
	<polygon style="fill:#4B9183;" points="248,231.6 259.2,232.4 261.2,231.6 262,231.6 260,232.8 248.4,231.6 242.4,233.2 238,232.8 
		220.4,234.4 220.4,234.4 238.4,232.8 242,233.2 	"/>
	<polygon style="fill:#4B9183;" points="219.2,234.4 222,234.4 220.8,234 	"/>
</g>
<polygon style="fill:#B92A27;" points="223.2,232.4 223.2,232.8 226,232.4 "/>
<path style="fill:#CD862F;" d="M259.2,248c1.2-1.2,4-1.6,4-1.6v-0.8v-0.8c0,0-2.8,0.8-4.4,0c0,0-0.8,2-2.4,2.4l0,0l0,0
	C257.6,246.4,259.2,248,259.2,248z"/>
<path style="fill:#E19F4A;" d="M258.8,247.2c1.2-0.8,4-1.2,4-1.2v-0.4v-0.4c0,0-2.8,0.8-4.4,0c0,0-1.2,1.2-2.8,1.6l0,0l0,0
	C257.6,246,258.8,247.2,258.8,247.2z"/>
<path style="fill:#F0B359;" d="M258.8,246.4c1.2-0.4,4-1.2,4-1.2v-0.4v-0.4c0,0-2.8,0.8-4.4,0.4c0,0-1.2,0.8-2.8,1.2l0,0l0,0
	C257.6,246,258.8,246.4,258.8,246.4z"/>
<path style="fill:#37505B;" d="M261.6,243.6l0.4,1.6l0.4,1.6c15.6-1.2,18.8-2,18.8-2l-0.8-2.8l-0.4-2.8
	C280,239.2,276.4,239.2,261.6,243.6z"/>
<path style="fill:#132528;" d="M283.2,238.4c-0.4,0-0.8,0-1.6,0.4l1.2,6c0.4,0,0.8,0,1.6-0.4c4.4-0.8,8.4-2,10.8-2.8l-0.8-4
	C291.6,237.2,287.6,237.6,283.2,238.4z"/>
<g>
	<path style="fill:#99A899;" d="M279.6,239.2l1.2,5.6c0.8,0,1.6,0,2-0.4l-0.8-5.6C281.2,238.8,280.4,239.2,279.6,239.2z"/>
	<path style="fill:#99A899;" d="M298.8,238.8c0-0.8-1.6-1.2-4-1.2l0.8,4C297.6,240.4,298.8,239.6,298.8,238.8z"/>
</g>
<path style="fill:#455E6C;" d="M261.6,244.4l0.4,1.2l0.4,1.2c15.6-1.6,18.8-2.4,18.8-2.4l-0.8-2.4l-0.4-2
	C280,240,276.8,240.4,261.6,244.4z"/>
<path style="fill:#1B3035;" d="M283.6,239.2c-0.4,0-0.8,0-1.6,0.4l0.8,4c0.4,0,0.8,0,1.6-0.4c4.4-0.8,8.4-1.6,11.2-2.8l-0.8-2.4
	C292,238,288,238.8,283.6,239.2z"/>
<g>
	<path style="fill:#B2BDB2;" d="M280,240l0.8,4c0.8,0,1.6-0.4,2-0.4l-0.8-4C281.2,240,280.4,240,280,240z"/>
	<path style="fill:#B2BDB2;" d="M298.8,238.8c0-0.4-1.6-0.8-4-0.8l0.4,2.8C297.6,240,298.8,239.2,298.8,238.8z"/>
</g>
<path style="fill:#5E747D;" d="M261.6,244.8v0.8v0.8c15.6-2,18.8-2.8,18.8-2.8v-1.2l-0.4-1.2C280.4,240.8,276.8,241.2,261.6,244.8z"
	/>
<path style="fill:#37505B;" d="M283.6,240.4c-0.4,0-0.8,0-1.6,0.4l0.4,2.4c0.4,0,0.8,0,1.6-0.4c4.4-0.8,8.4-1.6,11.2-2.4l-0.4-1.6
	C292,238.8,288,239.6,283.6,240.4z"/>
<path style="fill:#CDCECB;" d="M280,240.8l0.4,2.4c0.8,0,1.6-0.4,2-0.4l-0.4-2.4C281.6,240.8,280.8,240.8,280,240.8z"/>
<path style="fill:#CECFCD;" d="M298.8,238.8c0-0.4-1.6-0.4-4,0l0.4,1.6C297.2,239.6,298.8,239.2,298.8,238.8z"/>
<path style="fill:#A8A6A6;" d="M294.8,238.8L294.8,238.8l-10.4,2c-0.4,0-0.8,0.4-0.4,0.8c0,0.4,0.4,0.4,0.8,0.4l10.4-2l0,0
	L294.8,238.8z"/>
<circle style="fill:#FFFFFF;" cx="259.2" cy="246" r="0.4"/>
<rect x="154.8" y="260" style="fill:#CE7C3F;" width="180.8" height="24"/>
<polygon style="fill:#DE8D58;" points="89.2,268.8 154.8,284 154.8,260 89.2,244.8 "/>
<polygon style="fill:#BE6B2F;" points="401.6,268.8 336,284 336,260 401.6,244.8 "/>
<g>
</g>
<g>
</g>
<g>
</g>
<g>
</g>
<g>
</g>
<g>
</g>
<g>
</g>
<g>
</g>
<g>
</g>
<g>
</g>
<g>
</g>
<g>
</g>
<g>
</g>
<g>
</g>
<g>
</g>
</svg>
