<?xml version="1.0" encoding="UTF-8" standalone="no"?>
<!-- Generator: Adobe Illustrator 19.0.0, SVG Export Plug-In . SVG Version: 6.00 Build 0)  -->

<svg
   xmlns:dc="http://purl.org/dc/elements/1.1/"
   xmlns:cc="http://creativecommons.org/ns#"
   xmlns:rdf="http://www.w3.org/1999/02/22-rdf-syntax-ns#"
   xmlns:svg="http://www.w3.org/2000/svg"
   xmlns="http://www.w3.org/2000/svg"
   xmlns:sodipodi="http://sodipodi.sourceforge.net/DTD/sodipodi-0.dtd"
   xmlns:inkscape="http://www.inkscape.org/namespaces/inkscape"
   version="1.1"
   id="Capa_1"
   x="0px"
   y="0px"
   viewBox="0 0 512 512"
   style="enable-background:new 0 0 512 512;"
   xml:space="preserve"
   inkscape:version="0.91 r13725"
   sodipodi:docname="other_greencartong.svg"><metadata
     id="metadata45"><rdf:RDF><cc:Work
         rdf:about=""><dc:format>image/svg+xml</dc:format><dc:type
           rdf:resource="http://purl.org/dc/dcmitype/StillImage" /><dc:title /></cc:Work></rdf:RDF></metadata><defs
     id="defs43" /><sodipodi:namedview
     pagecolor="#ffffff"
     bordercolor="#666666"
     borderopacity="1"
     objecttolerance="10"
     gridtolerance="10"
     guidetolerance="10"
     inkscape:pageopacity="0"
     inkscape:pageshadow="2"
     inkscape:window-width="1920"
     inkscape:window-height="1016"
     id="namedview41"
     showgrid="false"
     inkscape:zoom="0.4609375"
     inkscape:cx="-544.54238"
     inkscape:cy="256"
     inkscape:window-x="-8"
     inkscape:window-y="-8"
     inkscape:window-maximized="1"
     inkscape:current-layer="Capa_1" /><path
     style="fill:#1fbccc;fill-opacity:1"
     d="M512,256c0,68.38-26.63,132.67-74.98,181.02S324.38,512,256,512s-132.67-26.63-181.02-74.98  S0,324.38,0,256S26.63,123.33,74.98,74.98S187.62,0,256,0s132.67,26.63,181.02,74.98S512,187.62,512,256z"
     id="path3" /><path
     style="fill:#000000;fill-opacity:0.13777778"
     d="M512,256c0,68.38-26.63,132.67-74.98,181.02S324.38,512,256,512V0c68.38,0,132.67,26.63,181.02,74.98  S512,187.62,512,256z"
     id="path5" /><g
     id="g11" /><g
     id="g13" /><g
     id="g15" /><g
     id="g17" /><g
     id="g19" /><g
     id="g21" /><g
     id="g23" /><g
     id="g25" /><g
     id="g27" /><g
     id="g29" /><g
     id="g31" /><g
     id="g33" /><g
     id="g35" /><g
     id="g37" /><g
     id="g39" /></svg>