<?xml version="1.0" encoding="iso-8859-1"?>
<!-- Generator: Adobe Illustrator 19.0.0, SVG Export Plug-In . SVG Version: 6.00 Build 0)  -->
<svg version="1.1" id="Layer_1" xmlns="http://www.w3.org/2000/svg" xmlns:xlink="http://www.w3.org/1999/xlink" x="0px" y="0px"
	 viewBox="0 0 512 512" style="enable-background:new 0 0 512 512;" xml:space="preserve">
<circle style="fill:#FFC61B;" cx="256" cy="256" r="256"/>
<path style="fill:#EAA22F;" d="M277.128,511.126c112.704-9.209,204.731-91.412,228.74-199.256L389.891,194.801l-139.636,37.064l0,0
	l-6.322,6.322l-90.352-91.008l-40.269-2.838l-10.45,2.784l116.652,115.484l-47.407,67.232l-11.797,36.388l27.424,28.082
	l-13.626,13.791L277.128,511.126z"/>
<polygon style="fill:#FFFFFF;" points="355.987,341.333 156.875,341.333 156.875,199.111 384.431,199.111 "/>
<polygon style="fill:#D0D1D3;" points="384.431,199.111 262.322,199.111 262.322,341.333 355.987,341.333 "/>
<path style="fill:#386895;" d="M362.748,342.685l28.444-142.222c0.405-2.026-0.117-4.127-1.427-5.723
	c-1.31-1.596-3.268-2.524-5.334-2.524h-220.66v-19.394c0-20.675-16.82-37.495-37.495-37.495h-18.532
	c-3.808,0-6.896,3.088-6.896,6.896s3.088,6.896,6.896,6.896h18.532c13.071,0,23.704,10.633,23.704,23.704v168.512
	c0,19.487,15.853,35.34,35.34,35.34h170.667c3.808,0,6.896-3.088,6.896-6.896s-3.088-6.896-6.896-6.896H185.32
	c-9.468,0-17.513-6.147-20.397-14.653h191.064C359.272,348.229,362.105,345.909,362.748,342.685z M324.094,206.007h51.926
	l-6.896,34.478h-45.03V206.007z M324.094,254.276h42.272l-7.24,36.202h-35.031V254.276z M198.249,334.438h-34.478v-30.168h34.478
	V334.438z M198.249,290.478h-34.478v-36.202h34.478V290.478z M198.249,240.485h-34.478v-34.478h34.478V240.485z M255.138,334.438
	H212.04v-30.168h43.098V334.438z M255.138,290.478H212.04v-36.202h43.098V290.478z M255.138,240.485H212.04v-34.478h43.098V240.485z
	 M310.303,334.438h-41.374v-30.168h41.374V334.438z M310.303,290.478h-41.374v-36.202h41.374V290.478z M310.303,240.485h-41.374
	v-34.478h41.374V240.485z M324.094,334.438v-30.168h32.273l-6.034,30.168H324.094z"/>
<g>
	<path style="fill:#273B7A;" d="M355.987,376.673c3.808,0,6.896-3.088,6.896-6.896s-3.088-6.896-6.896-6.896h-93.665v13.791H355.987
		z"/>
	<path style="fill:#273B7A;" d="M355.987,348.229c3.286,0,6.118-2.32,6.761-5.544l28.444-142.222
		c0.405-2.026-0.117-4.127-1.427-5.723c-1.31-1.596-3.268-2.524-5.334-2.524H262.322v156.013H355.987z M324.094,206.007h51.926
		l-6.896,34.478h-45.03V206.007z M324.094,254.276h42.272l-7.24,36.202h-35.031V254.276z M324.094,304.269h32.273l-6.034,30.168
		h-26.24V304.269z M268.929,206.007h41.374v34.478h-41.374V206.007z M268.929,254.276h41.374v36.202h-41.374V254.276z
		 M310.303,304.269v30.168h-41.374v-30.168H310.303z"/>
	<circle style="fill:#273B7A;" cx="185.32" cy="393.912" r="18.101"/>
</g>
<circle style="fill:#121149;" cx="308.579" cy="393.912" r="18.101"/>
<g>
</g>
<g>
</g>
<g>
</g>
<g>
</g>
<g>
</g>
<g>
</g>
<g>
</g>
<g>
</g>
<g>
</g>
<g>
</g>
<g>
</g>
<g>
</g>
<g>
</g>
<g>
</g>
<g>
</g>
</svg>
