<?xml version="1.0" encoding="iso-8859-1"?>
<!-- Generator: Adobe Illustrator 19.0.0, SVG Export Plug-In . SVG Version: 6.00 Build 0)  -->
<svg version="1.1" id="Capa_1" xmlns="http://www.w3.org/2000/svg" xmlns:xlink="http://www.w3.org/1999/xlink" x="0px" y="0px"
	 viewBox="0 0 508 508" style="enable-background:new 0 0 508 508;" xml:space="preserve">
<circle style="fill:#6DB8E0;" cx="254" cy="254" r="254"/>
<path style="fill:#E7E8E9;" d="M405.8,174.4H102.2c-16.4,0-29.8,13.4-29.8,29.8S85.8,234,102.2,234h303.4
	c16.4,0,29.8-13.4,29.8-29.8C435.6,187.6,422.2,174.4,405.8,174.4z"/>
<path style="fill:#E65336;" d="M116.4,234L136,389.2c1.8,14.2,14.2,25.4,28,25.4h183.8c13.6,0,26.2-11.2,28-25.4L395.4,234
	L116.4,234L116.4,234z"/>
<g>
	<path style="fill:#F2CD56;" d="M187.4,268.6c-3.2,0-5.6,3-5.4,6.8l7.4,108c0.2,3,2.8,5.4,5.6,5.4s5-2.4,5-5.4l-6.4-108
		C193.4,271.8,190.6,268.6,187.4,268.6z"/>
	<path style="fill:#F2CD56;" d="M255.8,268.6c-3.2,0-5.8,3-5.8,6.8l0.6,108c0,3,2.4,5.4,5.2,5.4c2.8,0,5.2-2.4,5.2-5.4l0.6-108
		C261.6,271.8,259,268.6,255.8,268.6z"/>
	<path style="fill:#F2CD56;" d="M324.2,268.6c-3.2,0-6,3-6.2,6.8l-6.4,108c-0.2,3,2,5.4,5,5.4c2.8,0,5.4-2.4,5.6-5.4l7.4-108
		C329.8,271.8,327.4,268.6,324.2,268.6z"/>
</g>
<g>
	<circle style="fill:#0B2C48;" cx="151.4" cy="205.2" r="20.2"/>
	<circle style="fill:#0B2C48;" cx="208.2" cy="113.6" r="20.2"/>
</g>
<path style="fill:#36505F;" d="M212.6,106.6c-4-2.4-9.2-1.2-11.6,2.6L144.8,200c-2.4,4-1.2,9.2,2.6,11.6c4,2.4,9.2,1.2,11.6-2.6
	l56.4-90.6C217.8,114.2,216.6,109,212.6,106.6z"/>
<g>
	<circle style="fill:#0B2C48;" cx="299.8" cy="113.6" r="20.2"/>
	<circle style="fill:#0B2C48;" cx="356.6" cy="205.2" r="20.2"/>
</g>
<path style="fill:#36505F;" d="M361,212.2c-4,2.4-9.2,1.2-11.6-2.6L293,119c-2.4-4-1.2-9.2,2.6-11.6s9.2-1.2,11.6,2.6l56.4,90.6
	C366.2,204.6,365,209.8,361,212.2z"/>
<g>
</g>
<g>
</g>
<g>
</g>
<g>
</g>
<g>
</g>
<g>
</g>
<g>
</g>
<g>
</g>
<g>
</g>
<g>
</g>
<g>
</g>
<g>
</g>
<g>
</g>
<g>
</g>
<g>
</g>
</svg>
