<?xml version="1.0" encoding="iso-8859-1"?>
<!-- Generator: Adobe Illustrator 19.0.0, SVG Export Plug-In . SVG Version: 6.00 Build 0)  -->
<svg version="1.1" id="Capa_1" xmlns="http://www.w3.org/2000/svg" xmlns:xlink="http://www.w3.org/1999/xlink" x="0px" y="0px"
	 viewBox="0 0 512 512" style="enable-background:new 0 0 512 512;" xml:space="preserve">
<g>
	<path style="fill:#E5E5E5;" d="M339.516,177.888c-1.78,0-3.567-0.62-5.011-1.885c-3.163-2.769-3.482-7.578-0.713-10.741
		c22.104-25.246,20.569-63.872-3.496-87.939c-2.972-2.972-2.972-7.792,0.001-10.764c2.972-2.971,7.792-2.972,10.765,0.001
		c29.713,29.716,31.55,77.476,4.184,108.731C343.741,177.009,341.634,177.888,339.516,177.888z"/>
	<path style="fill:#E5E5E5;" d="M369.024,214.11c-1.948,0-3.896-0.743-5.382-2.229c-2.973-2.973-2.973-7.792,0-10.765
		c42.783-42.782,42.344-112.836-0.979-156.159c-2.973-2.973-2.973-7.792,0-10.766c2.972-2.971,7.792-2.971,10.764,0
		c23.851,23.851,37.093,55.46,37.29,89.004c0.197,33.578-12.698,65.073-36.311,88.687C372.92,213.367,370.972,214.11,369.024,214.11
		z"/>
	<path style="fill:#E5E5E5;" d="M401.359,246.446c-1.948,0-3.896-0.743-5.382-2.229c-2.973-2.973-2.973-7.792,0-10.766
		c29.251-29.25,45.225-68.281,44.982-109.903c-0.244-41.655-16.699-80.918-46.334-110.552c-2.973-2.973-2.973-7.792,0-10.766
		c2.972-2.971,7.792-2.971,10.764,0c32.488,32.488,50.526,75.541,50.794,121.23c0.268,45.723-17.292,88.609-49.442,120.759
		C405.255,245.703,403.307,246.446,401.359,246.446z"/>
	<path style="fill:#E5E5E5;" d="M172.484,177.888c-2.118,0-4.225-0.879-5.73-2.598c-27.367-31.255-25.529-79.015,4.183-108.731
		c2.972-2.973,7.792-2.972,10.765-0.001c2.972,2.972,2.973,7.792,0,10.764c-24.064,24.067-25.6,62.694-3.496,87.939
		c2.77,3.163,2.451,7.972-0.713,10.741C176.051,177.268,174.264,177.888,172.484,177.888z"/>
	<path style="fill:#E5E5E5;" d="M142.977,214.11c-1.948,0-3.896-0.743-5.382-2.229c-23.613-23.613-36.508-55.109-36.311-88.687
		c0.197-33.544,13.439-65.153,37.29-89.004c2.972-2.971,7.792-2.971,10.765,0c2.973,2.973,2.973,7.792,0,10.766
		c-43.323,43.322-43.762,113.376-0.979,156.159c2.973,2.973,2.973,7.792,0,10.765C146.873,213.367,144.925,214.11,142.977,214.11z"
		/>
	<path style="fill:#E5E5E5;" d="M110.642,246.446c-1.948,0-3.896-0.743-5.382-2.229c-32.15-32.15-49.709-75.035-49.442-120.759
		C56.085,77.77,74.123,34.716,106.61,2.228c2.972-2.971,7.792-2.971,10.764,0c2.973,2.973,2.973,7.792,0,10.766
		C87.74,42.63,71.285,81.892,71.041,123.548c-0.243,41.623,15.731,80.655,44.982,109.903c2.973,2.973,2.973,7.792,0,10.766
		C114.538,245.703,112.59,246.446,110.642,246.446z"/>
</g>
<path style="fill:#585A60;" d="M403.5,476.477h-35.602c-0.222-1.015-74.704-340.604-75.019-341.929
	c-5.036,12.912-16.647,22.533-30.724,24.731c4.13,18.203,10.39,49.316,17.802,82.765h-47.911
	c7.412-33.449,13.671-64.562,17.802-82.765c-14.078-2.198-25.689-11.818-30.724-24.729c-0.319,1.339-74.797,340.912-75.019,341.927
	h-35.602c-9.809,0-17.762,7.952-17.762,17.762S98.692,512,108.502,512h49.897c8.346,0,15.567-5.812,17.351-13.965
	c3.505-16.022,7.224-33.009,11.065-50.535h138.374c3.841,17.526,7.56,34.511,11.065,50.535c1.783,8.153,9.004,13.965,17.351,13.965
	h49.897c9.809,0,17.762-7.952,17.762-17.762S413.309,476.477,403.5,476.477z M287.813,277.567
	c3.507,15.874,7.167,32.474,10.905,49.445h-85.437c3.737-16.971,7.398-33.57,10.904-49.445H287.813z M194.603,411.978
	c3.594-16.374,7.237-32.959,10.862-49.445h101.07c3.625,16.484,7.268,33.07,10.862,49.445H194.603z"/>
<g>
	<path style="fill:#414356;" d="M109.457,494.239c0-9.809,7.952-17.762,17.762-17.762h-18.717c-9.809,0-17.762,7.952-17.762,17.762
		S98.692,512,108.502,512h18.717C117.408,512,109.457,504.048,109.457,494.239z"/>
	<path style="fill:#414356;" d="M219.122,134.551c-0.319,1.339-74.797,340.912-75.019,341.927h10.226
		c3.439-0.35,8.957-2.143,10.644-9.834c0-0.001,68.746-313.774,68.746-313.774C227.181,148.402,222.042,142.037,219.122,134.551z"/>
	<path style="fill:#414356;" d="M296.073,230.205c-0.004-0.02-0.007-0.037-0.011-0.056c-6.111-28.091-11.901-56.363-15.192-70.869
		c0.03-0.005,0.059-0.012,0.089-0.017l-1.531-7.214c-4.992,3.684-10.872,6.231-17.275,7.231
		c4.102,18.079,10.53,49.964,17.802,82.765h6.556C288.961,241.981,298.412,241.044,296.073,230.205z"/>
	<path style="fill:#414356;" d="M315.497,318.213L315.497,318.213c0,0-5.337-24.205-7.283-33.02
		c-1.327-6.013-5.696-7.37-8.339-7.626h-12.061c3.507,15.874,7.167,32.474,10.905,49.445h9.891
		C314.273,327.011,316.83,324.24,315.497,318.213z"/>
	<path style="fill:#414356;" d="M334.404,404.188c-0.093-0.423-0.185-0.844-0.278-1.268c0,0-6.054-27.561-7.197-32.76
		c-1.387-6.307-7.223-7.455-10.17-7.626h-10.222c3.625,16.484,7.268,33.07,10.862,49.445h9.819
		C334.729,411.978,334.79,406.679,334.404,404.188z"/>
	<path style="fill:#414356;" d="M354.969,498.035c-2.833-12.952-5.808-26.542-8.872-40.53c-1.824-8.325-8.357-9.793-11.535-10.004
		h-9.373c3.841,17.526,7.56,34.511,11.065,50.535c1.783,8.153,9.004,13.965,17.351,13.965h18.717
		C363.974,512,356.752,506.188,354.969,498.035z"/>
</g>
<circle style="fill:#6EDCF9;" cx="255.998" cy="123.224" r="39.58"/>
<path style="fill:#42CBEA;" d="M236.718,123.222c0-18.35,12.49-33.778,29.431-38.261c-25.179-6.663-49.73,12.357-49.73,38.261
	c0,21.861,17.721,39.58,39.58,39.58c3.509,0,6.909-0.462,10.149-1.319C249.208,157.001,236.718,141.574,236.718,123.222z"/>
<circle style="fill:#4A94CC;" cx="255.998" cy="123.224" r="12.881"/>
<path style="fill:#3C8ABA;" d="M262.44,112.079c-8.571-4.964-19.322,1.237-19.322,11.143c0,9.899,10.741,16.115,19.322,11.145
	C253.855,129.392,253.867,117.046,262.44,112.079z"/>
<g>
</g>
<g>
</g>
<g>
</g>
<g>
</g>
<g>
</g>
<g>
</g>
<g>
</g>
<g>
</g>
<g>
</g>
<g>
</g>
<g>
</g>
<g>
</g>
<g>
</g>
<g>
</g>
<g>
</g>
</svg>
