<?xml version="1.0" encoding="iso-8859-1"?>
<!-- Generator: Adobe Illustrator 19.0.0, SVG Export Plug-In . SVG Version: 6.00 Build 0)  -->
<svg version="1.1" id="Capa_1" xmlns="http://www.w3.org/2000/svg" xmlns:xlink="http://www.w3.org/1999/xlink" x="0px" y="0px"
	 viewBox="0 0 508 508" style="enable-background:new 0 0 508 508;" xml:space="preserve">
<circle style="fill:#6DB8DE;" cx="254" cy="254" r="254"/>
<g>
	<path style="fill:#D8D8E0;" d="M197.4,371.4l16.4,17.6l-23.6,11.8c19.6,8.4,41,13.2,63.6,13.2c21.2,0,41.4-4.2,59.8-11.6l-28.6-7.8
		l23.8-50.6c-24.8,18.4-55.4,29.4-88.8,29.4C212.6,373.2,205,372.6,197.4,371.4z"/>
	<path style="fill:#D8D8E0;" d="M347.6,147.4l27.6,2.4c-18.4-21.4-42.4-37.8-69.6-47.2C322.6,114.4,337,129.6,347.6,147.4z"/>
	<path style="fill:#D8D8E0;" d="M110.4,324.6c4.8,9.6,10.4,18.6,16.8,27l1-10.4C121.8,336,115.8,330.6,110.4,324.6z"/>
	<path style="fill:#D8D8E0;" d="M413.4,239.8l-28.8,11.4l-15.4-18.8c-2,40.6-20.4,77-48.8,102.6l48-19.2l8.4,41
		C400,328.8,414,293,414,254C414,249.2,413.8,244.4,413.4,239.8z"/>
</g>
<path style="fill:#EAEAEB;" d="M369,232.2l-27.4-33.4L345,147l2.6,0.2c-10.8-17.6-25.2-33-42-44.8c-5.8-2-11.8-3.6-18-5v7
	l-61.2,12.8l-50-3.4c-20.8,11.6-38.8,27.6-52.6,46.8l-5.2,46L94,255.8c0.2,24.8,6.2,48,16.4,68.8c5.4,6,11.4,11.4,17.6,16.4l1-10.6
	l36,6.4l32.4,34.6c7.6,1.2,15.2,1.8,23,1.8c33.2,0,64-11,88.8-29.4l2.8-5.8l8.4-3.4C348.6,309.2,367,272.8,369,232.2z"/>
<g>
	<path style="fill:#BCBFC2;" d="M260,215l-45.4-43.2l9.8-61.8l2.8,0.4l-9.6,60.4L261,212l89.2-16.4l2-39
		c-3.2-4.4-33.6-46.8-67.6-53.6l0.6-2.6c36.8,7.4,68.2,53.2,69.6,55.2l0.2,0.4l-2.2,42.2L260,215z"/>
	<path style="fill:#BCBFC2;" d="M159.4,361.8c-8.8,0-23.2-19-25-21.4c-0.2-0.2-38.6-40.4-37-101V239l10.6-34.6l58.4,5.6l-0.2,2.8
		l-56.2-5.4l-10,32.4c-1.6,59.2,36,98.4,36.4,98.8c6.6,8.8,18.8,22,23.6,20.4c2-0.6,2.8-4.2,2.6-10.2c-1-30.8,22-73,22.8-74.8
		l0.2-0.2l11.2-11.6c0.8-0.4,19-10.4,36.8-5c9.2,2.8,16.4,9.2,21.4,19c16.4,31.8,58.8,61.8,64.4,65.6l44.8-16.8
		c19.8-30.8,19-84.8,19-85.4h2.8c0,2.2,0.8,56-19.6,87.4l-0.2,0.4l-47,17.8l-0.6-0.4c-0.4-0.4-48-32.6-65.8-67
		c-4.8-9.2-11.4-15.2-19.8-17.6c-15.6-4.8-32.6,3.6-34.4,4.6l-10.6,11c-1.6,2.8-23.4,44-22.4,73.2c0.2,7.4-1.2,11.6-4.6,12.8
		C160.4,361.6,160,361.8,159.4,361.8z"/>
</g>
<g>
	<path style="fill:#3D444B;" d="M258.4,284h-79.2l-23-72.8l60.6-46.2l68,42.2L258.4,284z"/>
	<path style="fill:#3D444B;" d="M287.8,104.6v-7C277,95.2,265.6,94,254,94c-28.2,0-54.6,7.2-77.4,20l50,3.4L287.8,104.6z"/>
	<path style="fill:#3D444B;" d="M341.6,198.8l42.8,52.2l28.8-11.4c-3-34.2-16.8-65.4-38-90L345,147L341.6,198.8z"/>
	<path style="fill:#3D444B;" d="M123.8,160.8C105,187.2,94,219.2,94,254c0,0.6,0,1.2,0,1.8l24.8-48.8L123.8,160.8z"/>
</g>
<path style="fill:#BCBFC2;" d="M260.6,397c-30.4,0-56.2-8-56.6-8.2l1-2.8c0.4,0.2,46.4,14.4,87.4,4.6l0.8,3
	C282.2,396,271,397,260.6,397z"/>
<g>
	<path style="fill:#3D444B;" d="M165,336.8l-36-6.4l-1.8,21c16.4,21.4,38.2,38.4,63.2,49.4L214,389L165,336.8z"/>
	<path style="fill:#3D444B;" d="M312,338.2l-26.6,56.4l28.6,7.8c24.6-10,46.2-25.8,63-45.8l-8.4-41L312,338.2z"/>
</g>
<g>
</g>
<g>
</g>
<g>
</g>
<g>
</g>
<g>
</g>
<g>
</g>
<g>
</g>
<g>
</g>
<g>
</g>
<g>
</g>
<g>
</g>
<g>
</g>
<g>
</g>
<g>
</g>
<g>
</g>
</svg>
