<?xml version="1.0" encoding="iso-8859-1"?>
<!-- Generator: Adobe Illustrator 19.0.0, SVG Export Plug-In . SVG Version: 6.00 Build 0)  -->
<svg version="1.1" id="Layer_1" xmlns="http://www.w3.org/2000/svg" xmlns:xlink="http://www.w3.org/1999/xlink" x="0px" y="0px"
	 viewBox="0 0 473.654 473.654" style="enable-background:new 0 0 473.654 473.654;" xml:space="preserve">
<path style="fill:#7EAF37;" d="M369.077,433.304H104.551c37.77,25.474,83.277,40.35,132.261,40.35S331.308,458.778,369.077,433.304z
	"/>
<circle style="fill:#B9E8EA;" cx="236.827" cy="236.827" r="236.827"/>
<rect x="211.099" y="290.913" style="fill:#5B524C;" width="50.75" height="3.429"/>
<g style="opacity:0.7;">
	<rect x="225.683" y="305" style="fill:#665F59;" width="20.986" height="7.068"/>
</g>
<g style="opacity:0.7;">
	<rect x="223.11" y="318.836" style="fill:#423F3E;" width="26.128" height="7.068"/>
</g>
<rect x="181.291" y="385.139" style="fill:#B79E80;" width="109.607" height="8.257"/>
<polygon style="fill:#423C38;" points="206.933,303.975 210.228,305.688 262.477,305.688 265.772,303.975 "/>
<polygon style="fill:#5B524C;" points="205.516,295.838 206.933,303.975 265.772,303.975 267.185,295.838 "/>
<polygon style="fill:#9E8F7E;" points="265.772,293.695 206.933,293.695 205.516,295.838 267.185,295.838 "/>
<g>
	<path style="fill:#5B524C;" d="M237.62,188.721h-2.128c-2.909,72.017-7.315,101.668-7.315,101.668h16.757
		C244.938,290.389,240.937,260.738,237.62,188.721z M236.565,191.017l2.906,96.758h-5.826L236.565,191.017z"/>
	<path style="fill:#5B524C;" d="M243.424,82.712h-2.494c2.898,94.099,14.057,205.415,14.057,205.415h-36.85
		c0,0,11.155-111.32,14.057-205.415H229.7c-4.555,147.833-16.701,208.81-16.701,208.81h47.126
		C260.121,291.522,247.975,230.545,243.424,82.712z"/>
	<polygon style="fill:#5B524C;" points="246.561,57.141 241.423,51.008 241.423,46.285 241.438,46.285 241.423,46.266 
		241.423,46.221 241.378,46.221 238.645,43.297 238.633,43.297 238.633,31.592 234.49,31.592 234.49,43.297 234.482,43.297 
		231.749,46.221 231.711,46.221 231.711,46.259 231.685,46.285 231.711,46.285 231.711,51.008 226.57,57.141 226.457,71.276 
		226.57,77.267 229.696,82.712 243.435,82.712 246.561,77.267 246.674,71.276 	"/>
</g>
<rect x="235.257" y="14.622" style="fill:#E5E5E5;" width="2.64" height="16.955"/>
<g>
	<ellipse style="fill:#5B524C;" cx="236.453" cy="14.996" rx="2.464" ry="1.5"/>
	<rect x="225.908" y="171.377" style="fill:#5B524C;" width="21.207" height="8.994"/>
</g>
<g style="opacity:0.8;">
	<rect x="217.531" y="279.952" style="fill:#5B524C;" width="37.908" height="8.997"/>
</g>
<g style="opacity:0.7;">
	<rect x="217.531" y="264.994" style="fill:#5B524C;" width="37.908" height="6.608"/>
</g>
<g style="opacity:0.7;">
	<rect x="219.472" y="249.486" style="fill:#5B524C;" width="34.049" height="6.612"/>
</g>
<g style="opacity:0.7;">
	<rect x="221.383" y="233.985" style="fill:#5B524C;" width="30.216" height="6.608"/>
</g>
<g style="opacity:0.7;">
	<rect x="223.006" y="218.466" style="fill:#5B524C;" width="26.985" height="6.604"/>
</g>
<g style="opacity:0.7;">
	<rect x="223.649" y="202.947" style="fill:#5B524C;" width="25.698" height="6.608"/>
</g>
<g style="opacity:0.7;">
	<rect x="225.235" y="187.465" style="fill:#5B524C;" width="22.475" height="6.604"/>
</g>
<path style="fill:#5B524C;" d="M237.62,188.721h-2.128c-2.909,72.017-7.315,101.668-7.315,101.668h16.757
	C244.938,290.389,240.937,260.738,237.62,188.721z"/>
<g style="opacity:0.7;">
	<rect x="227.179" y="158.861" style="fill:#5B524C;" width="18.634" height="6.088"/>
</g>
<g style="opacity:0.7;">
	<rect x="228.114" y="144.564" style="fill:#5B524C;" width="16.738" height="6.092"/>
</g>
<g style="opacity:0.7;">
	<rect x="229.086" y="130.264" style="fill:#5B524C;" width="14.846" height="6.092"/>
</g>
<g style="opacity:0.7;">
	<rect x="229.872" y="115.964" style="fill:#5B524C;" width="13.268" height="6.092"/>
</g>
<g style="opacity:0.7;">
	<rect x="230.171" y="101.679" style="fill:#5B524C;" width="12.632" height="6.088"/>
</g>
<g style="opacity:0.7;">
	<rect x="230.971" y="87.375" style="fill:#5B524C;" width="11.054" height="6.092"/>
</g>
<g>
	<polygon style="fill:#5B524C;" points="226.158,194.189 236.386,188.863 228.29,180.599 236.046,171.119 228.058,164.953 
		236.061,158.865 228.903,150.727 236.012,145.193 229.771,136.408 235.971,130.16 230.541,122.101 235.948,116.02 230.84,107.808 
		235.922,101.903 231.588,93.493 235.477,87.278 232.654,82.446 231.726,82.981 234.228,87.255 230.354,93.441 234.64,101.754 
		229.516,107.711 234.617,115.904 229.191,122.015 234.591,130.029 228.376,136.3 234.55,144.976 227.355,150.578 234.501,158.711 
		226.304,164.949 234.516,171.299 226.854,180.663 234.606,188.579 224.345,193.923 233.596,202.846 224.169,209.7 233.125,218.227 
		222.112,224.991 231.816,233.652 220.478,240.514 231.311,249.474 218.492,255.993 229.595,264.904 218.081,270.876 
		228.443,280.371 217.232,288.516 217.856,289.379 230.133,280.464 219.932,271.119 231.551,265.098 220.455,256.194 
		233.252,249.691 222.321,240.653 233.607,233.821 223.896,225.152 234.875,218.41 225.837,209.809 235.257,202.958 	"/>
	<polygon style="fill:#5B524C;" points="244.549,280.371 254.908,270.876 243.401,264.904 254.5,255.993 241.677,249.474 
		252.518,240.514 241.176,233.652 250.884,224.991 239.871,218.227 248.82,209.7 239.393,202.846 248.648,193.923 238.383,188.579 
		246.139,180.663 238.473,171.299 246.688,164.949 238.491,158.711 245.641,150.578 238.446,144.976 244.613,136.3 238.402,130.029 
		243.802,122.015 238.375,115.904 243.472,107.711 238.353,101.754 242.635,93.441 238.764,87.255 241.262,82.981 240.335,82.446 
		237.515,87.278 241.404,93.493 237.07,101.903 242.149,107.808 237.044,116.02 242.448,122.101 237.022,130.16 243.218,136.408 
		236.977,145.193 244.086,150.727 236.928,158.865 244.931,164.953 236.947,171.119 244.699,180.599 236.607,188.863 
		246.831,194.189 237.736,202.958 247.152,209.809 238.125,218.41 249.093,225.152 239.385,233.821 250.671,240.653 
		239.737,249.691 252.541,256.194 241.446,265.098 253.057,271.119 242.863,280.464 255.132,289.379 255.761,288.516 	"/>
	<polygon style="fill:#5B524C;" points="226.386,187.431 236.113,180.55 228.679,172.148 236.483,165.315 228.148,158.797 
		236.779,150.174 229.083,144.471 236.711,136.061 229.976,130.201 236.655,122.284 230.698,115.919 236.629,107.808 
		230.997,101.615 236.599,93.366 231.805,87.394 236.278,82.256 235.313,81.414 230.133,87.356 234.999,93.43 229.367,101.728 
		234.969,107.898 229.03,116.02 234.939,122.329 228.174,130.339 234.883,136.169 227.179,144.658 234.815,150.323 226.214,158.921 
		234.471,165.371 226.857,172.032 234.198,180.33 224.116,187.465 234.408,194.312 224.135,202.98 234.034,209.685 221.828,218.526 
		232.736,224.849 221.536,233.806 231.79,240.537 220.231,249.209 230.773,256.232 217.894,264.605 228.843,271.37 216.432,279.941 
		228.353,288.56 229.109,287.517 218.653,279.967 231.188,271.306 220.298,264.579 233.11,256.251 222.46,249.145 234.023,240.47 
		223.724,233.705 235.006,224.677 224.184,218.41 236.274,209.655 226.259,202.868 236.543,194.192 	"/>
	<polygon style="fill:#5B524C;" points="244.284,271.37 255.23,264.605 242.347,256.232 252.889,249.209 241.333,240.537 
		251.587,233.806 240.387,224.849 251.299,218.526 239.09,209.685 248.988,202.98 238.712,194.312 249.003,187.465 238.925,180.33 
		246.266,172.032 238.656,165.371 246.913,158.921 238.308,150.323 245.948,144.658 238.245,136.169 244.946,130.339 
		238.185,122.329 244.089,116.02 238.151,107.898 243.757,101.728 238.125,93.43 242.99,87.356 237.811,81.414 236.842,82.256 
		241.318,87.394 236.528,93.366 242.126,101.615 236.498,107.808 242.425,115.919 236.468,122.284 243.151,130.201 236.412,136.061 
		244.045,144.471 236.349,150.174 244.976,158.797 236.64,165.315 244.448,172.148 237.014,180.55 246.737,187.431 236.58,194.192 
		246.864,202.868 236.85,209.655 248.94,218.41 238.117,224.677 249.4,233.705 239.101,240.47 250.667,249.145 240.013,256.251 
		252.829,264.579 241.932,271.306 254.463,279.967 244.015,287.517 244.766,288.56 256.692,279.941 	"/>
</g>
<polygon style="fill:#827467;" points="226.484,305.261 211.387,372.925 218.189,373.542 232.964,305.261 "/>
<g>
	<path style="fill:#917E6D;" d="M210.445,305.261l-19.704,68.524l22.31,0.617l14.775-69.137h-17.382V305.261z M209.192,373.759
		l-15.347-0.426l3.448-12.004h14.831L209.192,373.759z M212.628,359.194h-14.723l3.448-11.993h14.102L212.628,359.194z
		 M215.96,345.054h-13.993l3.568-12.419h13.358L215.96,345.054z M219.397,330.496h-13.246l3.324-11.566h12.647L219.397,330.496z
		 M210.089,316.794l3.205-11.14h11.959l-2.625,11.14L210.089,316.794L210.089,316.794z"/>
	<path style="fill:#917E6D;" d="M217.411,312.423l8.882-6.092l-0.538-0.752l-1.227-0.052l-8.238,5.587l-4.128-5.209l-0.98,0.83
		l4.039,5.101l-7.745,5.232l6.002,7.337l-8.16,5.905l4.282,7.692l-10.205,7.326l6.309,8.646l-9.364,7.288l5.265,5.497l-9.596,5.867
		l0.894,1.462l9.914-6.062l5.92,6.178l0.927-0.89l-5.722-5.976l9.427-5.759l-5.553-7.617l8.474-6.597l-4.79-8.612l10.044-7.206
		l-5.856-7.154l7.386-5.348L217.411,312.423z M210.882,361.086l-8.163,4.985l-4.473-4.674l8.208-6.383L210.882,361.086z
		 M214.629,347.029l-7.576,5.894l-5.258-7.214l8.65-6.2L214.629,347.029z M219.053,331.218l-8.407,6.028l-3.657-6.567l7.292-5.284
		L219.053,331.218z M214.861,323.395l-4.876-5.957l6.346-4.289l4.846,5.669L214.861,323.395z"/>
</g>
<polygon style="fill:#827467;" points="245.619,305.261 239.138,305.261 253.913,374.399 260.716,373.782 "/>
<g>
	<path style="fill:#917E6D;" d="M261.662,305.261h-17.385l14.775,69.137l22.31-0.617L261.662,305.261z M246.846,305.65h11.963
		l3.197,11.14h-12.535L246.846,305.65z M249.979,318.93h12.643l3.321,11.566h-13.242L249.979,318.93z M253.21,332.635h13.35
		l3.571,12.419h-13.993L253.21,332.635z M256.643,347.201h14.106l3.444,11.993H259.47L256.643,347.201z M259.975,361.329h14.831
		l3.452,12.004l-15.351,0.426L259.975,361.329z"/>
	<path style="fill:#917E6D;" d="M270.498,366.759l5.265-5.497l-9.36-7.288l6.309-8.646l-10.209-7.326l4.286-7.692l-8.16-5.905
		l5.998-7.337l-7.741-5.232l4.039-5.101l-0.976-0.83l-4.128,5.209l-8.238-5.587l-1.23,0.052l-0.531,0.752l8.878,6.092l-5.654,6.623
		l7.389,5.348l-5.856,7.154l10.048,7.206l-4.798,8.612l8.478,6.597l-5.553,7.617l9.427,5.759l-5.722,5.976l0.931,0.89l5.912-6.178
		l9.914,6.062l0.89-1.462L270.498,366.759z M250.918,318.817l4.846-5.669l6.354,4.289l-4.876,5.957L250.918,318.817z
		 M253.046,331.218l4.764-5.823l7.292,5.284l-3.657,6.567L253.046,331.218z M257.473,347.029l4.188-7.52l8.65,6.2l-5.262,7.214
		L257.473,347.029z M261.213,361.086l4.431-6.069l8.208,6.383l-4.476,4.674L261.213,361.086z"/>
</g>
<polygon style="fill:#84766A;" points="263.655,311.97 208.515,311.97 206.372,319.038 265.693,319.038 "/>
<path style="fill:#B79E80;" d="M181.291,372.645v13.141h109.614v-13.141H181.291z M193.62,383.635h-9.517v-8.784h9.517V383.635z
	 M205.74,383.635h-9.521v-8.784h9.521V383.635z M217.423,383.635h-9.517v-8.784h9.517L217.423,383.635L217.423,383.635z
	 M229.539,383.635h-9.517v-8.784h9.517V383.635z M241.004,383.635h-9.517v-8.784h9.517V383.635z M253.121,383.635h-9.517v-8.784
	h9.517V383.635z M264.807,383.635h-9.521v-8.784h9.521V383.635z M276.923,383.635h-9.521v-8.784h9.521V383.635z M288.388,383.635
	h-9.517v-8.784h9.517V383.635z"/>
<polygon style="fill:#A3D5E0;" points="268.943,390.909 202.124,390.909 197.629,400.74 273.441,400.74 "/>
<path style="fill:#A08A72;" d="M274.799,404.484h-77.768l-36.45,56.557c2.412,0.819,4.82,1.634,7.266,2.378
	c4.114-33.11,30.059-58.644,68.071-58.644c38.2,0,64.223,25.784,68.135,59.134c2.502-0.737,4.981-1.526,7.445-2.345L274.799,404.484
	z"/>
<g>
	<path style="fill:#84786B;" d="M291.432,434.789l-24.419-19.27l-34.692-8.997l-25.698,5.781l-28.911,27.628l-6.365,24.483
		c1.488,0.426,2.973,0.871,4.473,1.271c0.101-29.92,26.962-54.156,60.095-54.156c33.192,0,60.102,24.326,60.102,54.325l0.019,0.337
		c1.458-0.378,2.883-0.826,4.33-1.23L291.432,434.789z"/>
	<path style="fill:#84786B;" d="M235.915,404.779c-38.013,0-63.958,25.534-68.071,58.644c1.159,0.352,2.337,0.658,3.5,0.995
		l6.365-24.483l28.911-27.628l25.698-5.781l34.692,8.997l24.419,19.27l8.938,30.171c1.23-0.344,2.461-0.688,3.683-1.047
		C300.138,430.563,274.115,404.779,235.915,404.779z"/>
</g>
<g>
	<path style="fill:#B79E80;" d="M290.539,390.909h-21.592l4.499,9.831h-75.816l4.495-9.831h-20.829l-39.142,63.016
		c4.506,1.967,9.061,3.829,13.709,5.523l37.912-57.399l88.295,0.501l30.369,58.7c5.983-2.016,11.881-4.222,17.64-6.69
		L290.539,390.909z"/>
	<path style="fill:#B79E80;" d="M282.065,402.546l-88.295-0.501l-37.912,57.399c1.559,0.565,3.149,1.062,4.723,1.597l36.45-56.557
		h77.768l36.696,57.081c0.31-0.105,0.625-0.213,0.935-0.318L282.065,402.546z"/>
	<rect x="193.13" y="396.245" style="fill:#B79E80;" width="84.163" height="1.286"/>
</g>
<g>
</g>
<g>
</g>
<g>
</g>
<g>
</g>
<g>
</g>
<g>
</g>
<g>
</g>
<g>
</g>
<g>
</g>
<g>
</g>
<g>
</g>
<g>
</g>
<g>
</g>
<g>
</g>
<g>
</g>
</svg>
