<?xml version="1.0" encoding="iso-8859-1"?>
<!-- Generator: Adobe Illustrator 19.0.0, SVG Export Plug-In . SVG Version: 6.00 Build 0)  -->
<svg version="1.1" id="Capa_1" xmlns="http://www.w3.org/2000/svg" xmlns:xlink="http://www.w3.org/1999/xlink" x="0px" y="0px"
	 viewBox="0 0 512 512" style="enable-background:new 0 0 512 512;" xml:space="preserve">
<circle style="fill:#FFDC00;" cx="256" cy="256" r="256"/>
<path style="fill:#FFC000;" d="M508.516,298.211L280.151,69.847L85.958,358.351l153.076,153.076
	C244.644,511.794,250.297,512,256,512C383.004,512,488.388,419.508,508.516,298.211z"/>
<path style="fill:#FFFFFF;" d="M114.624,355.714c-8.557,0-12.796-5.742-14.221-8.211c-1.425-2.468-4.278-9.01,0-16.42
	L241.779,86.211C246.057,78.8,253.149,78,256,78c2.851,0,9.942,0.8,14.221,8.211l141.377,244.871c4.278,7.41,1.425,13.953,0,16.421
	c-1.426,2.469-5.664,8.211-14.222,8.211H114.624z"/>
<path style="fill:#E0E0E0;" d="M411.598,331.082L270.221,86.211C265.942,78.8,258.851,78,256,78v277.714h141.376
	c8.558,0,12.796-5.742,14.222-8.211C413.022,345.035,415.876,338.492,411.598,331.082z"/>
<path style="fill:#F1333F;" d="M256,97.579l138.642,240.135H117.358L256,97.579 M256,60c-11.593,0-23.185,5.737-29.81,17.211
	L84.814,322.082c-13.249,22.948,3.312,51.632,29.81,51.632h282.753c26.498,0,43.058-28.684,29.81-51.632L285.81,77.211
	C279.185,65.737,267.593,60,256,60L256,60z"/>
<path style="fill:#AE283F;" d="M427.186,322.082L285.81,77.211C279.185,65.737,267.593,60,256,60v37.579l0,0l138.642,240.135H256v36
	h141.376C423.874,373.714,440.435,345.029,427.186,322.082z"/>
<path style="fill:#333333;" d="M326.168,289.5C310.089,274.227,284.106,265,256,265s-54.089,9.227-70.168,24.5H154.5v34h203v-34
	H326.168z"/>
<path style="fill:#1A1A1A;" d="M357.5,289.5h-31.332C310.089,274.227,284.106,265,256,265v58.5h101.5V289.5z"/>
<g>
</g>
<g>
</g>
<g>
</g>
<g>
</g>
<g>
</g>
<g>
</g>
<g>
</g>
<g>
</g>
<g>
</g>
<g>
</g>
<g>
</g>
<g>
</g>
<g>
</g>
<g>
</g>
<g>
</g>
</svg>
