<?xml version="1.0" encoding="iso-8859-1"?>
<!-- Generator: Adobe Illustrator 19.0.0, SVG Export Plug-In . SVG Version: 6.00 Build 0)  -->
<svg version="1.1" id="Layer_1" xmlns="http://www.w3.org/2000/svg" xmlns:xlink="http://www.w3.org/1999/xlink" x="0px" y="0px"
	 viewBox="0 0 473.958 473.958" style="enable-background:new 0 0 473.958 473.958;" xml:space="preserve">
<circle style="fill:#99CA41;" cx="236.99" cy="236.992" r="236.966"/>
<path style="fill:#908985;" d="M236.979,0C106.099,0,0.002,106.094,0.002,236.977c0,91.595,51.999,170.995,128.058,210.444
	l319.367-319.367C407.977,51.999,328.573,0,236.979,0z"/>
<g>
	<path style="fill:#FFFFFF;" d="M58.646,194.317c-1.931-3.648-6.458-5.051-10.114-3.113L0.945,216.386
		c-0.494,5.744-0.786,11.54-0.864,17.392l55.453-29.35C59.189,202.5,60.581,197.973,58.646,194.317z"/>
	<path style="fill:#FFFFFF;" d="M323.428,45.709l-68.721,36.374c-3.656,1.934-5.048,6.462-3.113,10.114
		c1.34,2.537,3.936,3.981,6.623,3.981c1.179,0,2.38-0.277,3.495-0.868l68.721-36.374c3.656-1.934,5.048-6.462,3.113-10.114
		C331.612,45.178,327.084,43.771,323.428,45.709z"/>
	<path style="fill:#FFFFFF;" d="M185.982,118.457l-68.721,36.377c-3.656,1.934-5.048,6.462-3.113,10.114
		c1.34,2.537,3.936,3.981,6.623,3.981c1.179,0,2.38-0.277,3.495-0.868l68.721-36.377c3.656-1.934,5.048-6.462,3.113-10.114
		C194.166,117.918,189.638,116.518,185.982,118.457z"/>
</g>
<path style="fill:#614C32;" d="M344.704,400.742c0,6.436-5.212,11.633-11.626,11.633l0,0c-6.425,0-11.626-5.201-11.626-11.633
	V169.457c0-6.425,5.205-11.626,11.626-11.626l0,0c6.417,0,11.626,5.205,11.626,11.626V400.742z"/>
<circle style="fill:#E84849;" cx="332.929" cy="173.195" r="79.176"/>
<circle style="fill:#F4F5F5;" cx="332.929" cy="173.195" r="62.906"/>
<path style="fill:#8AB53F;" d="M361.751,391.695c-0.995-0.939-2.5-1.074-3.652-0.352l-13.44,8.55l-7.566-17.65
	c-0.464-1.089-1.534-1.792-2.72-1.804c-0.007,0-0.011,0-0.022,0c-1.175,0-2.245,0.7-2.728,1.77l-8.06,18.155l-19.468-2.013
	c-1.239-0.101-2.458,0.55-3.001,1.684c-0.543,1.141-0.307,2.5,0.584,3.39l13.796,13.792c0.554,0.561,1.313,0.876,2.107,0.876h30.192
	c1.078,0,2.073-0.584,2.597-1.519l11.929-21.253C362.971,394.135,362.751,392.638,361.751,391.695z"/>
<g>
</g>
<g>
</g>
<g>
</g>
<g>
</g>
<g>
</g>
<g>
</g>
<g>
</g>
<g>
</g>
<g>
</g>
<g>
</g>
<g>
</g>
<g>
</g>
<g>
</g>
<g>
</g>
<g>
</g>
</svg>
